<?xml version="1.0" standalone="no"?>
<!DOCTYPE svg PUBLIC "-//W3C//DTD SVG 20010904//EN"
 "http://www.w3.org/TR/2001/REC-SVG-20010904/DTD/svg10.dtd">
<svg version="1.0" xmlns="http://www.w3.org/2000/svg"
 width="1080.000000pt" height="1080.000000pt" viewBox="0 0 1080.000000 1080.000000"
 preserveAspectRatio="xMidYMid meet">
<metadata>
Created by potrace 1.14, written by Peter Selinger 2001-2017
</metadata>
<g transform="translate(0.000000,1080.000000) scale(0.100000,-0.100000)"
fill="#000000" stroke="none">
<path d="M4996 9697 c3 -10 9 -15 12 -12 3 3 0 11 -7 18 -10 9 -11 8 -5 -6z"/>
<path d="M2652 9682 c-7 -9 -10 -10 -6 -2 6 12 4 13 -6 3 -9 -8 -19 -9 -31 -3
-11 7 -20 7 -24 0 -4 -7 -13 -7 -26 0 -13 8 -19 7 -19 0 0 -6 -5 -8 -12 -4
-18 11 -48 12 -54 2 -3 -5 -12 -4 -20 3 -11 9 -17 9 -28 0 -11 -9 -15 -9 -19
1 -4 10 -8 10 -16 -2 -10 -13 -11 -13 -11 0 0 12 -2 12 -9 1 -5 -8 -11 -9 -15
-3 -7 11 -24 11 -43 -1 -8 -5 -13 -3 -13 5 0 9 -3 9 -10 -2 -9 -13 -10 -13
-10 0 0 12 -2 13 -9 1 -7 -11 -9 -11 -14 0 -4 10 -6 10 -6 2 -1 -7 -6 -13 -12
-13 -5 0 -8 4 -5 8 3 4 -12 7 -32 6 -29 -1 -36 -5 -34 -19 2 -11 -1 -14 -8
-10 -6 4 -18 -1 -26 -11 -9 -11 -12 -13 -8 -5 5 9 3 12 -4 7 -7 -4 -12 -14
-12 -22 0 -8 -4 -13 -9 -9 -6 3 -8 -4 -6 -15 2 -11 -1 -20 -7 -20 -6 0 -8 -3
-5 -7 4 -3 1 -13 -6 -21 -10 -13 -9 -14 2 -7 11 6 12 5 5 -6 -13 -21 -14 -39
-2 -39 6 0 5 -6 -2 -15 -10 -12 -10 -15 0 -15 10 0 10 -3 1 -14 -9 -11 -9 -16
0 -21 8 -6 7 -10 -2 -16 -12 -7 -12 -9 0 -9 11 0 11 -3 1 -15 -10 -12 -10 -15
0 -15 10 0 10 -3 0 -15 -7 -8 -8 -15 -3 -15 5 0 10 -7 11 -15 1 -8 3 -22 4
-30 1 -8 7 -15 15 -15 7 0 12 -3 12 -7 -4 -27 1 -35 16 -23 13 10 15 9 15 -9
0 -11 5 -22 10 -22 6 -1 16 -2 23 -3 6 -1 18 3 26 8 11 8 13 8 8 0 -4 -7 0
-14 8 -17 9 -4 12 -1 9 8 -4 10 0 12 15 8 12 -3 21 -10 21 -15 0 -7 5 -6 14 1
10 8 16 8 25 -2 6 -8 7 -18 3 -23 -4 -4 2 -2 12 6 18 14 19 13 13 -3 -4 -10
-3 -16 2 -13 4 3 18 -6 29 -19 13 -15 17 -25 9 -25 -8 0 -7 -4 3 -10 8 -5 11
-10 6 -10 -5 0 -3 -7 4 -15 9 -11 9 -15 1 -15 -7 0 -9 -4 -6 -10 3 -5 1 -19
-6 -31 -6 -13 -7 -19 -1 -15 6 3 4 -8 -5 -24 -9 -19 -21 -29 -29 -26 -9 3 -11
0 -7 -12 3 -9 2 -14 -2 -9 -5 4 -17 -1 -27 -10 -18 -16 -19 -16 -13 3 6 18 6
18 -8 1 -10 -12 -17 -15 -22 -7 -5 8 -12 5 -22 -7 -8 -10 -12 -13 -9 -7 7 14
-42 16 -67 2 -13 -6 -19 -5 -24 7 -4 13 -8 14 -14 4 -6 -10 -11 -10 -25 2 -16
13 -17 12 -10 -6 6 -18 5 -18 -17 3 -20 19 -26 20 -35 9 -7 -8 -8 -18 -4 -23
4 -5 -2 -2 -13 7 -22 18 -49 14 -39 -4 5 -8 2 -8 -7 1 -7 6 -19 12 -27 12 -8
0 -10 -5 -6 -12 5 -9 2 -9 -9 1 -9 7 -17 10 -17 5 0 -5 -8 0 -17 11 -15 20
-15 20 -10 -3 4 -17 2 -21 -6 -14 -20 16 -79 21 -73 6 3 -8 0 -11 -9 -7 -8 3
-12 10 -9 17 3 6 -2 2 -10 -8 -15 -19 -16 -19 -16 -2 0 17 -1 17 -25 2 -14 -9
-30 -14 -35 -11 -13 8 -72 -53 -64 -67 4 -7 3 -8 -4 -4 -8 5 -12 -1 -12 -16 0
-19 -2 -20 -11 -8 -9 13 -10 12 -5 -2 3 -10 9 -25 13 -35 4 -10 2 -14 -4 -10
-5 3 -10 0 -10 -8 0 -8 4 -15 9 -15 5 0 7 -4 4 -9 -4 -5 0 -12 6 -14 10 -4 10
-6 0 -6 -10 -1 -10 -5 2 -17 9 -8 14 -20 11 -25 -4 -5 1 -9 9 -9 8 0 21 -8 28
-17 16 -22 55 -53 45 -37 -4 7 0 14 8 17 10 4 12 1 8 -10 -5 -12 -3 -14 6 -8
8 4 17 2 22 -6 7 -11 9 -9 9 6 0 15 2 17 9 6 6 -9 11 -10 15 -2 4 6 13 11 19
11 7 0 6 -4 -3 -10 -8 -5 -10 -10 -5 -10 6 0 16 5 23 12 9 9 12 9 12 -2 0 -13
2 -13 10 0 7 11 10 11 10 2 0 -8 5 -10 13 -5 19 12 38 12 31 1 -5 -7 -2 -8 7
-2 21 13 38 14 46 2 4 -7 1 -8 -7 -3 -9 6 -11 4 -5 -5 6 -10 11 -9 22 5 9 14
13 15 13 4 0 -12 2 -12 10 1 9 13 10 13 10 0 0 -13 1 -13 10 0 5 8 10 10 10 4
0 -7 11 -11 25 -10 14 0 25 7 25 14 0 10 4 9 16 -2 16 -17 39 -22 30 -8 -3 5
1 9 9 9 8 0 12 -4 9 -9 -8 -13 29 -6 38 7 5 6 8 6 8 -1 0 -7 7 -14 14 -17 11
-4 13 -1 9 11 -6 14 -4 15 9 4 12 -10 18 -10 23 -1 6 8 10 7 16 -2 6 -10 9
-11 9 -1 0 6 5 12 11 12 5 0 8 -4 5 -9 -3 -5 1 -11 9 -15 8 -3 14 0 12 6 -1 5
6 12 16 13 9 2 17 -2 17 -8 0 -7 5 -5 10 3 8 12 10 12 10 1 0 -11 3 -11 15 -1
12 10 15 10 15 -2 0 -8 7 -15 15 -15 8 0 12 4 9 8 -2 4 0 10 6 14 5 3 10 0 10
-7 0 -9 3 -9 10 2 9 13 10 13 10 0 0 -13 1 -13 10 0 8 13 10 13 10 0 0 -11 3
-11 12 -2 17 17 26 15 31 -5 4 -16 5 -15 6 1 1 20 1 20 16 0 8 -10 15 -14 14
-9 -3 22 2 29 11 15 6 -9 10 -11 10 -3 0 7 7 10 15 7 8 -4 12 -11 8 -17 -3 -6
-1 -7 5 -3 6 4 8 14 5 24 -4 11 1 9 15 -7 20 -22 22 -22 22 -5 0 16 2 17 11 4
8 -12 12 -12 16 -2 4 10 9 9 19 -5 13 -17 14 -17 7 2 -6 18 -5 19 12 5 11 -9
16 -10 11 -2 -4 6 -3 12 3 12 5 0 12 -6 15 -12 5 -10 7 -10 12 1 5 11 8 11 16
0 8 -11 11 -11 15 -1 4 10 8 10 21 0 13 -11 14 -11 8 1 -5 8 2 6 20 -5 22 -14
26 -15 17 -3 -10 13 -10 16 2 16 8 0 15 -3 15 -6 0 -9 43 -6 60 4 9 6 11 4 5
-6 -8 -12 -6 -12 8 0 14 11 17 11 17 0 0 -10 3 -10 12 -1 9 9 16 8 29 -4 11
-10 19 -12 23 -5 4 7 15 7 31 1 20 -8 23 -7 18 8 -5 13 -4 15 8 7 12 -9 34
-11 49 -5 19 7 39 7 34 -1 -3 -5 -1 -9 5 -9 5 0 12 6 14 13 4 9 8 9 15 -2 6
-8 12 -9 16 -3 7 12 23 10 56 -8 22 -12 24 -12 12 2 -10 13 -9 15 13 10 14 -2
25 -9 26 -16 0 -6 4 -2 9 9 5 11 9 14 9 7 1 -8 6 -10 14 -5 21 13 36 12 30 -3
-3 -8 -2 -14 3 -13 22 4 34 -2 34 -17 0 -9 5 -12 12 -8 7 5 9 2 5 -9 -4 -12
-2 -14 10 -10 12 5 15 2 10 -10 -3 -9 -2 -17 2 -17 5 0 7 -10 4 -22 -4 -19 -3
-20 6 -8 6 8 11 10 11 4 0 -6 -3 -14 -7 -18 -4 -3 -8 -16 -10 -28 -2 -12 -8
-27 -14 -34 -6 -7 -8 -18 -4 -24 3 -5 -1 -10 -9 -10 -9 0 -16 -5 -16 -12 0 -6
-3 -9 -6 -5 -8 7 -33 -16 -28 -25 5 -8 -21 -4 -48 7 -11 5 -18 3 -18 -5 0 -10
-4 -9 -16 1 -13 10 -17 10 -24 0 -5 -9 -10 -10 -14 -3 -4 6 -13 9 -21 5 -9 -3
-15 1 -15 8 0 11 -2 11 -8 1 -6 -8 -32 -11 -85 -9 -45 1 -77 -2 -77 -7 0 -6
-5 -5 -11 1 -6 6 -18 9 -25 6 -8 -3 -22 1 -31 8 -12 10 -15 10 -9 2 5 -9 -2
-13 -23 -13 -18 0 -31 5 -31 13 0 7 -5 5 -10 -5 -11 -17 -50 -14 -50 5 0 6 -6
2 -14 -8 -13 -17 -14 -17 -23 -1 -9 16 -11 16 -16 2 -4 -9 -13 -13 -22 -10 -8
3 -12 10 -9 15 3 5 -2 6 -10 3 -9 -3 -16 -10 -16 -16 0 -5 -6 -6 -12 -1 -7 4
-26 6 -42 4 -21 -2 -26 0 -20 11 6 10 5 10 -9 -1 -9 -7 -28 -11 -42 -9 -13 3
-26 0 -29 -6 -3 -6 -5 -5 -5 3 -1 11 -4 11 -18 0 -9 -8 -14 -9 -10 -3 4 7 0
15 -9 18 -8 3 -13 2 -10 -3 3 -5 -3 -11 -14 -14 -11 -3 -18 -2 -15 3 3 4 -2
11 -11 14 -9 4 -12 2 -8 -5 4 -7 -11 -10 -50 -7 -34 3 -56 0 -56 -6 0 -6 -5
-5 -12 2 -9 9 -15 9 -27 -1 -10 -8 -12 -8 -8 -1 4 7 0 14 -8 17 -10 4 -12 1
-8 -10 5 -13 3 -13 -15 -4 -26 14 -35 14 -27 1 3 -6 -1 -7 -9 -4 -9 3 -16 11
-16 18 0 7 -3 7 -8 -2 -6 -9 -34 -11 -100 -9 -58 2 -89 0 -85 -6 4 -6 1 -7 -7
-2 -22 13 -71 14 -63 1 4 -6 -1 -5 -10 3 -13 10 -17 10 -17 1 0 -8 -4 -9 -12
-4 -7 5 -66 9 -130 8 -83 -1 -115 2 -111 10 5 8 3 8 -8 0 -18 -14 -61 -25 -54
-14 3 4 -2 11 -11 14 -8 3 -12 2 -9 -4 9 -15 -39 -12 -54 3 -11 10 -13 10 -7
0 5 -9 0 -13 -16 -13 -13 0 -30 6 -37 13 -11 10 -13 10 -7 0 9 -16 -25 -18
-41 -2 -8 8 -13 7 -18 -2 -6 -8 -4 -10 5 -4 8 5 11 4 6 -3 -4 -7 -17 -8 -35
-2 -16 4 -32 6 -35 3 -3 -3 -12 0 -21 7 -13 11 -14 10 -8 -6 7 -18 6 -18 -19
-2 -19 13 -29 15 -34 6 -5 -7 -3 -8 6 -3 9 5 11 4 6 -3 -4 -7 -14 -9 -24 -4
-9 4 -26 7 -37 7 -11 -1 -25 3 -32 7 -7 6 -14 4 -19 -3 -5 -8 -3 -10 7 -4 8 5
10 4 6 0 -11 -13 -38 -15 -31 -3 8 12 -29 6 -38 -7 -5 -6 -8 -5 -8 3 0 6 -5
12 -11 12 -5 0 -7 -5 -3 -12 5 -7 2 -9 -8 -5 -17 6 -86 -48 -75 -60 4 -3 -2
-13 -14 -21 -14 -10 -17 -18 -10 -25 7 -7 7 -16 0 -29 -7 -13 -6 -18 3 -18 9
0 9 -3 -2 -10 -11 -7 -11 -10 -2 -10 7 0 10 -4 7 -10 -3 -5 -2 -10 3 -10 6 0
13 -11 16 -25 4 -14 11 -23 16 -20 5 3 7 -1 4 -9 -3 -9 2 -17 15 -21 12 -3 21
-11 21 -17 0 -6 3 -8 7 -5 3 4 13 1 21 -6 13 -10 15 -9 8 7 -7 19 -6 19 14 1
15 -14 20 -15 20 -4 0 11 2 11 10 -1 7 -11 10 -11 10 -2 0 7 5 10 11 7 18 -12
59 -13 59 -1 0 6 5 4 10 -4 6 -9 10 -10 10 -3 0 8 9 9 30 3 19 -5 30 -5 30 1
0 6 8 5 20 -1 15 -8 20 -8 20 2 0 9 3 9 10 -2 5 -8 10 -10 10 -5 0 6 22 10 50
10 27 0 50 -2 50 -5 0 -3 20 -5 44 -5 24 0 42 3 39 8 -2 4 0 7 6 7 5 0 13 -5
16 -11 5 -6 12 -4 22 8 8 10 12 13 9 7 -3 -7 1 -14 9 -18 8 -3 15 0 15 6 0 7
5 6 15 -2 12 -10 15 -9 15 6 0 17 1 17 15 -2 8 -10 15 -13 15 -7 0 9 7 10 27
2 15 -6 29 -6 31 -1 1 4 25 5 52 2 28 -4 50 -3 50 0 0 4 12 6 28 3 38 -5 154
-5 159 1 3 2 17 0 33 -4 20 -6 30 -5 34 3 3 8 5 7 5 -2 1 -11 5 -10 17 5 8 10
13 14 10 8 -3 -7 1 -14 9 -18 8 -3 15 0 15 7 0 8 4 6 10 -3 8 -12 10 -12 10
-1 0 11 3 11 15 1 12 -10 15 -10 15 0 0 10 3 10 15 0 11 -9 15 -9 15 -1 0 7 5
9 11 6 18 -12 59 -13 59 -2 0 7 4 7 12 -1 14 -14 32 -16 23 -3 -3 6 6 6 24 1
21 -6 31 -5 35 3 2 7 5 7 5 2 1 -7 23 -9 61 -5 33 3 67 2 75 -3 9 -5 15 -4 15
3 0 7 6 8 19 0 14 -7 21 -6 24 3 4 9 6 9 6 0 1 -7 7 -11 14 -9 31 10 78 15 73
8 -2 -4 7 -7 20 -7 13 0 24 3 24 7 0 4 12 3 26 -2 14 -6 30 -8 35 -4 5 3 9 0
9 -6 0 -6 4 -9 8 -6 4 2 14 -5 22 -17 11 -19 11 -21 -1 -12 -8 6 -7 2 4 -7 10
-10 16 -22 12 -28 -6 -9 8 -15 29 -11 5 1 4 -5 -4 -13 -10 -13 -10 -19 0 -31
11 -13 10 -14 -2 -10 -12 5 -15 -1 -11 -29 2 -27 0 -36 -11 -36 -8 0 -18 -5
-22 -12 -5 -7 -2 -8 7 -3 8 4 3 -3 -11 -16 -14 -14 -27 -24 -29 -22 -2 1 -11
-3 -19 -10 -13 -10 -14 -9 -7 3 8 13 7 13 -8 1 -14 -11 -20 -11 -34 0 -11 10
-14 10 -9 2 4 -7 3 -13 -1 -13 -5 0 -15 6 -22 13 -11 10 -13 10 -7 0 4 -7 2
-13 -3 -13 -6 0 -11 6 -11 13 0 9 -2 9 -9 -1 -9 -14 -32 -13 -43 3 -5 6 -8 6
-8 -1 0 -7 -7 -15 -16 -18 -8 -3 -12 -2 -9 4 9 14 -9 12 -24 -2 -10 -11 -11
-9 -5 7 6 16 5 18 -7 8 -16 -16 -33 -17 -23 -2 5 8 1 8 -14 0 -13 -7 -23 -7
-27 -1 -3 5 -12 7 -20 4 -8 -4 -13 -10 -10 -14 3 -5 -4 -6 -15 -3 -11 3 -20
10 -20 15 0 5 -5 6 -10 3 -6 -4 -7 -11 -4 -17 4 -7 0 -7 -13 1 -14 7 -23 7
-30 0 -8 -8 -13 -7 -18 2 -6 8 -4 10 5 4 9 -5 11 -4 6 4 -5 8 -12 9 -20 2 -7
-6 -17 -6 -26 -1 -9 5 -19 5 -27 -2 -9 -7 -17 -7 -27 1 -11 9 -17 8 -29 -4
-20 -20 -28 -19 -20 2 5 12 3 14 -8 7 -24 -14 -51 -16 -43 -2 4 7 -3 4 -15 -6
-22 -20 -22 -20 -15 0 7 16 6 17 -8 6 -12 -9 -18 -10 -23 -2 -5 8 -11 8 -21
-1 -8 -6 -14 -8 -14 -3 0 5 -5 2 -10 -6 -8 -13 -10 -12 -10 3 0 19 -15 23 -25
7 -4 -7 -14 -6 -28 2 -20 10 -21 10 -8 -6 13 -16 12 -16 -13 -5 -23 11 -29 10
-37 -2 -7 -11 -9 -10 -9 5 0 19 -1 19 -20 1 -20 -18 -21 -18 -14 1 7 16 6 17
-8 6 -10 -8 -18 -9 -22 -3 -8 12 -36 3 -54 -18 -8 -9 -11 -10 -7 -3 11 21 -5
13 -32 -15 -15 -16 -22 -21 -18 -13 8 13 6 13 -8 1 -9 -7 -15 -17 -12 -21 3
-5 -2 -15 -10 -24 -21 -20 -22 -102 -2 -138 8 -15 17 -25 20 -21 7 6 11 -13 8
-31 -1 -5 5 -3 14 4 9 7 15 9 14 4 -5 -28 1 -35 22 -23 12 6 19 7 15 1 -3 -5
3 -12 14 -15 11 -3 18 -2 16 1 -3 6 51 7 117 2 5 0 5 -4 2 -10 -3 -5 -4 -10 0
-10 3 0 10 10 15 23 5 12 9 16 9 7 1 -12 12 -14 52 -11 36 2 54 -1 60 -10 7
-11 9 -9 9 6 0 17 2 17 10 5 5 -8 10 -10 10 -4 0 10 67 10 113 0 10 -3 14 0
11 6 -4 6 -1 8 7 6 8 -3 13 -11 11 -17 -1 -6 2 -11 8 -11 5 0 10 8 10 17 0 12
3 14 10 7 6 -6 31 -8 60 -4 33 4 50 3 50 -4 0 -6 5 -4 10 4 9 14 14 7 11 -15
-1 -5 5 -2 12 7 8 10 16 15 19 12 3 -3 24 -5 47 -6 22 0 39 -4 36 -8 -3 -5 4
-6 15 -3 11 3 23 9 26 14 10 16 23 9 18 -8 -4 -11 -3 -14 3 -6 10 13 23 16 86
14 35 -1 46 -4 42 -13 -4 -7 1 -4 9 6 15 18 20 15 17 -9 -1 -5 6 -1 14 9 11
14 15 16 15 5 0 -12 2 -12 10 1 9 13 10 13 10 0 0 -13 1 -13 10 0 5 8 10 10
10 4 0 -8 13 -9 40 -4 28 5 45 3 60 -7 18 -12 21 -12 26 2 6 14 8 14 21 -2 8
-10 12 -12 8 -5 -4 8 2 12 19 12 14 0 26 -5 26 -10 0 -7 7 -7 20 0 11 6 25 8
30 5 6 -3 10 -1 10 5 0 6 5 8 12 4 7 -5 27 -7 45 -5 20 1 33 -2 33 -9 0 -7 7
-5 16 5 11 11 20 13 27 6 5 -5 16 -7 24 -4 8 3 19 0 24 -8 7 -12 9 -12 9 0 0
7 6 11 15 7 10 -3 15 1 16 12 0 14 2 14 9 -3 5 -11 9 -15 9 -10 1 6 10 11 21
11 11 0 20 -5 20 -11 0 -5 5 -3 10 5 8 12 10 12 10 -5 1 -20 1 -20 15 -1 11
14 15 16 15 5 0 -8 3 -10 8 -4 9 13 35 19 28 6 -3 -5 1 -11 9 -14 8 -4 12 -1
9 6 -3 8 4 13 15 13 11 0 17 -4 14 -9 -3 -5 4 -4 15 2 26 14 32 14 32 0 0 -5
-5 -7 -12 -3 -6 4 -8 3 -5 -3 8 -13 68 -8 77 7 5 9 9 9 14 1 4 -6 12 -11 17
-11 6 0 7 5 4 10 -12 19 68 -40 83 -62 9 -12 10 -18 4 -14 -8 5 -10 2 -6 -8 3
-9 11 -16 16 -16 6 0 8 -9 5 -20 -3 -10 0 -21 7 -24 7 -3 7 -5 0 -5 -5 -1 -9
-14 -8 -31 1 -17 -3 -28 -10 -27 -6 1 -10 -4 -8 -10 1 -7 -3 -13 -9 -13 -5 0
-7 -5 -4 -11 4 -6 0 -9 -11 -7 -11 2 -18 -2 -16 -9 2 -11 -17 -18 -40 -14 -5
0 -8 -4 -8 -10 0 -5 -5 -7 -11 -4 -18 12 -209 11 -209 0 0 -7 -3 -7 -8 0 -9
13 -42 16 -42 3 0 -5 -5 -6 -11 -2 -17 10 -148 11 -142 1 3 -5 -4 -4 -16 2
-16 9 -21 9 -21 -1 0 -9 -3 -9 -10 2 -9 13 -11 13 -20 0 -8 -12 -10 -12 -10
-1 0 10 -3 11 -14 2 -11 -9 -15 -9 -19 1 -4 10 -8 10 -16 -2 -6 -8 -11 -10
-11 -5 0 6 -34 10 -82 10 -46 0 -86 -4 -90 -10 -5 -6 -8 -5 -8 4 0 10 -3 11
-14 2 -11 -9 -15 -9 -20 1 -5 10 -7 10 -12 0 -3 -6 -11 -9 -16 -6 -18 11 -118
10 -118 -1 0 -5 -5 -3 -10 5 -9 13 -10 13 -10 0 0 -13 -1 -13 -11 0 -8 12 -12
12 -16 2 -4 -10 -10 -9 -26 5 -11 10 -17 12 -13 5 6 -9 -7 -12 -53 -10 -34 2
-61 -1 -61 -5 0 -5 -5 -5 -12 -1 -6 4 -36 7 -67 6 -31 0 -62 5 -70 11 -12 10
-13 9 -6 -2 6 -11 4 -13 -8 -8 -9 3 -18 1 -21 -6 -3 -9 -5 -9 -5 0 -1 8 -10 9
-30 3 -16 -4 -32 -6 -35 -3 -10 11 -166 8 -170 -2 -3 -7 -5 -7 -5 0 -1 8 -200
12 -236 5 -5 -1 -14 -1 -20 0 -5 1 -26 1 -46 0 -21 -1 -40 3 -43 9 -4 6 -13 8
-21 5 -8 -4 -12 -11 -8 -18 4 -6 -1 -5 -10 3 -13 10 -17 10 -17 1 0 -10 -3
-10 -15 0 -12 10 -15 10 -15 -1 0 -11 -2 -11 -10 1 -9 13 -10 13 -10 0 0 -13
-1 -13 -10 0 -9 13 -10 13 -10 0 -1 -11 -4 -10 -15 4 -14 18 -15 18 -15 2 0
-11 -4 -14 -12 -10 -21 13 -58 13 -58 1 0 -7 -4 -6 -10 3 -8 13 -11 13 -19 1
-7 -11 -10 -10 -14 5 -4 15 -5 15 -6 3 -1 -14 -7 -16 -36 -9 -24 5 -35 4 -35
-4 0 -7 -3 -7 -8 -1 -4 6 -51 10 -105 10 -58 0 -97 -4 -97 -10 0 -5 -5 -3 -10
5 -8 12 -10 12 -10 1 0 -11 -3 -11 -15 -1 -12 10 -15 10 -15 -1 0 -9 -3 -10
-8 -4 -8 11 -132 12 -150 1 -5 -3 -13 0 -16 6 -5 11 -7 11 -12 0 -3 -6 -11 -9
-17 -5 -18 11 -97 10 -97 -2 0 -6 -3 -7 -8 0 -8 12 -32 13 -49 2 -9 -6 -13 -2
-13 10 0 14 -2 15 -9 4 -5 -7 -14 -10 -20 -7 -6 4 -11 2 -11 -4 0 -6 -5 -8
-12 -4 -17 11 -58 11 -58 1 0 -5 -7 -4 -15 3 -12 10 -13 8 -10 -11 3 -16 1
-19 -6 -12 -17 17 -67 -39 -74 -82 -1 -5 4 -16 9 -24 8 -11 8 -13 0 -8 -8 4
-13 -4 -16 -23 -2 -16 -1 -27 4 -24 5 3 7 -6 4 -20 -3 -19 -1 -23 10 -19 8 3
14 2 13 -3 -4 -22 2 -34 17 -34 8 0 12 -4 9 -10 -3 -5 0 -10 9 -10 8 0 16 -4
18 -8 2 -5 16 -12 31 -16 22 -5 27 -4 21 6 -6 11 -5 11 8 0 11 -9 18 -10 23
-2 3 6 11 8 16 4 18 -11 79 -12 72 -1 -3 5 -1 7 4 4 20 -12 123 -14 123 -3 0
7 3 7 8 1 10 -14 32 -17 32 -4 0 8 4 8 13 1 16 -14 57 -12 57 3 0 5 5 3 10 -5
9 -13 11 -13 20 0 8 12 10 12 10 1 0 -11 3 -11 15 -1 8 7 15 8 15 4 0 -5 13
-10 30 -10 20 -1 27 2 23 10 -5 7 -2 7 8 -1 9 -7 20 -9 29 -3 9 5 20 5 28 -2
10 -9 16 -8 23 3 7 12 9 12 9 -1 1 -12 3 -12 14 3 12 15 14 15 19 2 5 -12 12
-13 32 -5 14 6 24 6 21 2 -2 -4 13 -7 34 -7 21 0 36 4 33 9 -4 5 -1 6 7 1 20
-12 110 -13 102 -1 -3 6 2 5 11 -3 11 -8 17 -9 17 -3 0 6 7 9 15 6 26 -10 109
-11 129 -1 13 6 16 6 12 -2 -4 -6 -2 -11 3 -11 6 0 11 5 11 11 0 5 5 7 10 4
18 -11 71 -15 65 -5 -3 6 1 7 10 4 24 -9 155 -10 155 -1 0 5 5 5 11 1 18 -11
83 -11 91 1 5 6 8 6 8 -2 0 -7 5 -13 11 -13 5 0 8 4 5 8 -3 5 5 7 17 6 12 -1
22 -3 22 -4 0 -1 17 -2 38 -3 20 -1 37 2 37 6 0 5 5 5 12 1 19 -12 168 -11
168 1 0 6 4 4 9 -3 4 -7 19 -14 32 -15 13 0 30 -9 37 -19 7 -10 18 -15 24 -12
7 4 8 2 4 -4 -4 -7 -2 -12 4 -12 6 0 8 -4 5 -10 -3 -5 -2 -10 2 -10 5 0 10
-27 11 -60 1 -34 -2 -58 -7 -55 -5 3 -7 -4 -4 -15 3 -12 2 -20 -3 -19 -21 4
-28 -2 -14 -11 12 -8 13 -10 1 -10 -8 0 -24 -8 -35 -17 -16 -14 -18 -14 -11
-3 8 13 7 13 -5 0 -12 -13 -30 -16 -73 -13 -44 2 -57 0 -52 -9 4 -7 -1 -4 -9
6 -9 11 -16 16 -16 10 0 -5 -20 -8 -45 -7 -33 1 -43 -2 -38 -10 5 -9 3 -9 -8
-1 -8 6 -25 10 -39 9 -14 -1 -38 2 -53 6 -23 7 -27 6 -18 -5 9 -11 6 -12 -14
-9 -20 4 -24 2 -20 -16 2 -12 -1 -21 -7 -21 -7 0 -6 -5 1 -14 9 -11 9 -16 0
-21 -8 -6 -7 -10 2 -16 12 -7 12 -9 0 -9 -10 0 -11 -3 -3 -13 7 -8 7 -18 2
-27 -5 -8 -5 -21 1 -32 7 -13 6 -18 -3 -18 -10 0 -10 -2 1 -9 9 -6 10 -10 2
-16 -9 -5 -9 -10 -1 -20 8 -10 7 -14 -2 -18 -10 -4 -10 -6 0 -6 6 -1 12 -7 12
-15 0 -18 40 -28 57 -14 11 9 12 7 6 -8 -5 -15 -4 -17 8 -8 20 15 61 16 53 1
-3 -7 2 -3 10 7 10 13 16 15 16 7 0 -10 3 -11 13 -3 7 6 18 7 27 2 7 -4 24 -4
36 0 14 6 26 5 29 -1 4 -5 11 -6 17 -3 6 4 14 0 19 -7 5 -9 9 -10 9 -2 0 12
17 12 37 0 6 -4 15 -2 19 4 5 8 3 9 -6 4 -9 -6 -11 -4 -5 4 5 9 11 9 17 3 7
-7 19 -7 33 -2 16 6 29 4 45 -7 13 -9 20 -12 17 -6 -4 6 0 14 9 17 8 3 12 2 9
-4 -3 -6 -2 -10 4 -10 5 0 13 5 16 10 5 7 11 8 19 1 7 -6 17 -6 26 -1 8 5 21
5 31 0 9 -5 19 -6 23 -2 4 3 11 0 16 -8 8 -12 10 -11 10 5 0 17 2 17 10 5 5
-8 10 -10 10 -4 0 15 40 10 51 -7 7 -11 9 -11 9 0 0 7 6 11 15 8 8 -4 17 -2
21 4 4 7 10 7 18 0 7 -6 17 -6 26 -1 10 6 23 4 39 -6 13 -9 21 -12 17 -6 -3 5
3 12 14 15 11 3 23 1 26 -4 3 -5 13 -5 25 1 15 9 21 7 26 -5 4 -13 8 -14 14
-4 6 10 11 10 25 -2 16 -13 17 -12 11 5 -6 14 -4 17 5 10 12 -8 33 -10 48 -4
16 6 48 5 44 -1 -7 -12 20 -17 39 -7 12 6 23 6 32 -2 10 -8 15 -8 21 1 5 8 3
9 -6 4 -9 -5 -11 -4 -6 4 5 8 12 9 20 2 7 -6 17 -6 26 -1 10 6 21 3 34 -8 11
-9 16 -11 12 -4 -4 6 -3 12 1 12 5 0 15 -6 22 -12 11 -11 12 -10 6 1 -5 9 1 7
19 -4 14 -10 26 -22 26 -27 0 -5 4 -7 9 -3 6 3 8 -4 6 -15 -2 -13 1 -20 11
-20 12 0 13 -4 3 -22 -11 -21 -11 -22 4 -10 13 11 15 10 10 -9 -4 -15 -3 -20
5 -15 8 5 10 2 6 -8 -3 -9 -10 -14 -14 -11 -5 3 -6 -5 -2 -17 4 -16 2 -19 -8
-13 -9 5 -11 4 -6 -4 11 -18 -22 -64 -41 -57 -13 5 -14 4 -4 -8 11 -13 9 -15
-8 -11 -12 2 -21 1 -21 -3 0 -12 -84 -10 -92 2 -5 7 -8 7 -8 1 0 -13 -69 -13
-89 -1 -9 6 -12 5 -7 -2 7 -12 -32 -11 -53 3 -9 5 -12 4 -8 -2 8 -13 -111 -12
-132 1 -10 6 -12 5 -7 -3 5 -8 -1 -10 -24 -6 -23 4 -29 2 -24 -6 5 -8 3 -9 -7
-3 -8 5 -25 10 -37 12 -17 2 -22 -1 -16 -10 6 -10 4 -10 -7 -2 -8 5 -25 9 -39
8 -14 -1 -31 3 -39 10 -11 8 -13 8 -8 0 4 -7 0 -15 -9 -18 -8 -3 -13 -2 -10 3
3 5 -1 12 -10 15 -8 3 -13 2 -10 -2 6 -10 -185 -9 -201 1 -6 4 -16 0 -23 -8
-12 -14 -15 -14 -30 0 -11 10 -21 12 -24 7 -3 -6 -23 -8 -43 -7 -21 2 -44 -1
-52 -8 -12 -9 -13 -9 -7 1 7 12 -7 17 -29 12 -5 -2 -18 -2 -28 -2 -10 0 -15
-4 -11 -10 5 -7 2 -8 -7 -2 -23 14 -49 15 -49 1 0 -8 -3 -8 -8 -2 -9 14 -45
14 -54 0 -5 -7 -8 -6 -8 1 0 7 -7 15 -16 18 -8 3 -13 2 -10 -3 3 -5 -1 -12
-10 -15 -8 -3 -13 -2 -10 3 3 5 -1 12 -10 15 -8 3 -13 2 -10 -3 7 -11 -75 -8
-93 3 -10 6 -12 5 -7 -2 8 -13 -88 -11 -100 1 -4 4 -16 -1 -27 -10 -11 -10
-17 -13 -14 -7 4 7 0 15 -9 18 -9 4 -12 2 -8 -5 4 -7 -5 -9 -30 -6 -20 3 -39
1 -42 -5 -3 -5 -12 -4 -20 3 -10 8 -14 8 -14 1 0 -7 -7 -9 -17 -5 -11 4 -14 3
-9 -5 4 -7 2 -12 -5 -12 -21 0 -48 -31 -42 -48 4 -10 2 -13 -5 -8 -12 7 -16
-9 -15 -61 0 -13 -3 -23 -6 -23 -4 0 -7 -9 -7 -19 0 -11 4 -17 8 -15 4 3 8 -6
8 -19 0 -13 10 -32 23 -43 46 -38 61 -49 53 -37 -5 9 -2 11 8 7 9 -3 14 -9 12
-13 -2 -3 20 -5 50 -4 30 0 54 -3 54 -9 0 -5 5 -6 10 -3 6 4 8 10 5 15 -3 5 7
5 23 0 16 -4 35 -4 43 1 8 4 19 3 26 -3 10 -8 13 -7 13 3 0 11 2 11 10 -1 9
-13 10 -13 10 0 1 11 4 10 15 -4 15 -20 15 -20 15 0 0 16 2 17 10 4 8 -12 11
-13 19 -1 6 9 11 10 15 2 4 -6 12 -9 17 -6 5 4 9 2 9 -3 0 -5 7 -9 15 -9 11 0
12 3 3 14 -9 11 -6 12 16 4 18 -7 26 -7 26 0 0 6 5 7 10 4 6 -4 7 -12 3 -18
-4 -7 0 -6 10 2 14 11 17 11 17 0 0 -11 2 -11 10 1 6 10 10 11 10 3 0 -7 7
-13 16 -13 8 0 12 -4 9 -10 -3 -5 -1 -10 4 -10 6 0 11 -7 11 -15 0 -9 6 -18
14 -21 15 -6 16 -21 3 -41 -6 -9 -3 -11 8 -7 13 5 14 2 5 -20 -5 -14 -6 -26
-2 -26 4 0 0 -5 -8 -10 -13 -8 -13 -10 -1 -10 11 0 10 -4 -4 -13 -10 -8 -15
-19 -11 -25 5 -8 1 -10 -10 -5 -12 4 -15 3 -10 -5 4 -7 1 -12 -8 -12 -9 0 -16
-5 -16 -11 0 -6 -7 -8 -16 -5 -9 4 -13 2 -8 -5 5 -8 -6 -10 -35 -7 -22 2 -41
1 -41 -2 0 -10 -110 -5 -110 5 0 6 -3 6 -8 0 -4 -6 -20 -16 -35 -23 -18 -8
-26 -17 -21 -25 4 -6 3 -9 -1 -4 -12 10 -45 -22 -45 -44 0 -10 -4 -20 -8 -23
-11 -6 -9 -36 3 -55 5 -9 4 -12 -2 -8 -5 3 -10 0 -10 -8 0 -8 5 -11 10 -8 6 4
8 0 4 -10 -3 -10 -2 -17 4 -17 6 0 8 -4 5 -9 -3 -4 4 -17 17 -27 21 -19 21
-19 8 1 -8 11 0 5 18 -14 17 -18 31 -30 31 -25 0 5 5 2 10 -6 8 -12 10 -12 10
-1 0 10 3 11 14 2 8 -7 17 -8 20 -3 6 10 48 8 65 -2 5 -3 12 0 14 6 4 9 6 9 6
1 1 -8 10 -9 31 -3 17 5 28 5 26 1 -3 -4 13 -7 35 -7 21 1 39 5 39 9 0 4 8 3
18 -2 11 -6 24 -6 35 0 9 6 17 6 17 1 0 -4 15 -7 32 -6 18 1 38 -2 45 -8 7 -5
17 -7 23 -3 5 3 13 -1 16 -9 3 -9 10 -13 15 -11 5 3 11 -6 15 -20 3 -13 10
-23 14 -20 5 3 6 -4 3 -15 -3 -11 -1 -20 4 -20 11 0 11 -36 0 -46 -11 -11 -8
-26 3 -19 5 3 2 -7 -7 -24 -10 -16 -22 -27 -28 -23 -5 3 -3 -3 5 -14 8 -10 10
-16 6 -12 -5 4 -22 -2 -39 -14 -17 -12 -27 -17 -23 -10 5 8 2 10 -8 6 -9 -3
-14 -9 -11 -13 5 -9 -32 -7 -41 2 -12 12 -26 8 -18 -5 5 -7 3 -8 -6 -3 -24 15
-94 5 -123 -16 -15 -11 -32 -17 -37 -14 -6 3 -10 -1 -10 -10 0 -9 -4 -13 -10
-10 -5 3 -10 -3 -10 -15 0 -12 -4 -18 -10 -15 -6 3 -7 -1 -4 -9 4 -9 1 -16 -6
-16 -9 0 -9 -4 1 -17 8 -9 12 -19 10 -22 -13 -22 -19 -51 -10 -51 6 0 7 -5 3
-12 -11 -18 -11 -111 -1 -125 6 -9 5 -13 -3 -13 -9 0 -10 -3 -1 -13 8 -10 7
-17 -2 -27 -10 -10 -9 -11 3 -5 13 8 13 7 1 -8 -10 -13 -10 -17 -1 -17 10 0
10 -3 0 -15 -10 -12 -10 -15 0 -15 10 0 10 -3 0 -15 -10 -12 -10 -15 0 -15 10
0 10 -3 0 -15 -10 -12 -10 -15 0 -15 10 0 10 -3 0 -15 -10 -12 -10 -15 0 -15
9 0 10 -3 1 -13 -8 -10 -7 -17 1 -25 9 -9 9 -12 -1 -12 -10 0 -11 -3 -2 -14 9
-11 9 -15 -1 -19 -11 -4 -11 -6 0 -6 10 -1 10 -6 2 -21 -8 -15 -8 -20 1 -20 8
0 8 -4 -1 -15 -10 -12 -10 -15 0 -15 9 0 9 -4 2 -13 -7 -8 -7 -18 -2 -27 5 -9
5 -19 -2 -27 -6 -7 -6 -13 -1 -13 13 0 11 -43 -2 -52 -6 -5 -5 -8 3 -8 9 0 10
-5 3 -18 -6 -11 -6 -24 0 -35 7 -12 6 -17 -3 -17 -8 0 -9 -3 -3 -8 13 -9 18
-32 7 -32 -9 0 -8 -42 2 -58 4 -7 3 -12 -2 -12 -5 0 -9 -7 -9 -15 0 -8 4 -15
9 -15 5 0 6 -6 1 -12 -10 -17 -10 -38 -1 -65 5 -15 3 -23 -3 -23 -8 0 -7 -5 1
-15 10 -12 10 -15 0 -15 -10 0 -10 -3 0 -15 10 -12 10 -15 0 -15 -10 0 -10 -3
0 -15 7 -8 8 -15 3 -15 -5 0 -10 -7 -10 -15 0 -8 4 -15 9 -15 5 0 4 -9 -2 -20
-7 -14 -7 -20 0 -20 12 0 9 -22 -5 -32 -6 -5 -5 -8 4 -8 11 0 11 -3 1 -15 -7
-8 -8 -15 -3 -15 5 0 10 -7 10 -15 0 -8 -5 -15 -10 -15 -5 0 -4 -7 3 -15 7 -8
8 -15 3 -15 -5 0 -10 -7 -10 -15 0 -8 5 -15 10 -15 6 0 6 -5 1 -12 -11 -16
-11 -68 -1 -85 5 -8 3 -13 -3 -13 -6 0 -8 -5 -3 -12 11 -19 12 -37 2 -44 -6
-3 -5 -11 2 -20 9 -11 9 -14 0 -14 -9 0 -9 -5 -1 -20 8 -15 8 -20 -1 -20 -9 0
-9 -3 0 -14 9 -11 9 -16 0 -21 -8 -6 -7 -10 2 -17 11 -8 11 -11 1 -15 -10 -4
-10 -8 -1 -19 9 -11 9 -14 -1 -14 -10 0 -10 -3 0 -15 10 -12 10 -15 0 -15 -10
0 -10 -3 -1 -14 9 -11 9 -15 -1 -19 -11 -4 -11 -6 0 -6 10 -1 10 -6 1 -22 -8
-16 -8 -20 1 -14 9 6 9 2 1 -14 -9 -16 -9 -21 0 -21 8 0 9 -4 0 -13 -8 -10 -7
-17 1 -25 9 -9 9 -12 -1 -12 -10 0 -11 -3 -2 -14 9 -11 9 -15 -1 -19 -10 -4
-10 -6 1 -6 11 -1 11 -4 1 -16 -7 -8 -8 -15 -3 -15 5 0 9 -9 9 -20 0 -11 -4
-20 -9 -20 -5 0 -4 -7 3 -15 10 -12 10 -15 -1 -15 -9 0 -10 -3 -4 -8 13 -9 15
-42 3 -42 -6 0 -6 -6 1 -14 9 -11 9 -16 0 -21 -8 -6 -8 -10 2 -15 10 -7 10
-11 0 -24 -11 -12 -11 -16 -1 -16 10 0 10 -3 0 -15 -9 -11 -9 -15 -1 -15 8 0
9 -5 2 -18 -7 -13 -6 -23 1 -30 9 -9 9 -12 -1 -12 -7 0 -9 -5 -4 -12 11 -18
10 -42 -2 -50 -6 -5 -5 -8 3 -8 10 0 10 -5 1 -21 -8 -16 -8 -20 1 -14 9 6 9 3
1 -12 -7 -14 -7 -23 1 -31 9 -9 9 -12 -1 -12 -11 0 -11 -3 -1 -15 7 -8 8 -15
3 -15 -8 0 -10 -32 -3 -50 1 -3 1 -9 0 -15 -6 -27 -5 -52 2 -67 5 -10 5 -18 0
-18 -5 0 -9 -7 -9 -15 0 -8 5 -15 10 -15 5 0 4 -7 -3 -15 -10 -12 -10 -15 0
-15 10 0 10 -3 0 -15 -10 -12 -10 -15 0 -15 10 0 10 -3 0 -15 -10 -12 -10 -15
0 -15 10 0 10 -3 0 -15 -7 -8 -9 -15 -4 -15 5 0 9 -11 9 -25 0 -14 -4 -25 -9
-25 -5 0 -3 -7 4 -15 10 -12 10 -15 0 -15 -10 0 -10 -3 0 -15 10 -12 10 -15 0
-15 -10 0 -10 -3 0 -15 10 -12 10 -15 0 -15 -10 0 -10 -3 0 -15 9 -11 9 -15 1
-15 -9 0 -9 -5 -1 -20 8 -15 8 -20 -2 -20 -10 0 -10 -2 -1 -8 8 -5 9 -13 3
-22 -5 -9 -5 -19 2 -27 7 -9 7 -13 -2 -13 -10 0 -10 -3 -1 -14 9 -11 9 -15 -1
-19 -11 -4 -10 -6 0 -6 8 -1 10 -6 6 -13 -12 -19 -12 -48 -1 -48 5 0 4 -7 -3
-15 -10 -12 -10 -15 0 -15 10 0 10 -3 1 -14 -9 -10 -9 -16 -1 -21 8 -5 8 -11
-1 -21 -9 -11 -9 -14 0 -14 9 0 9 -5 1 -20 -8 -14 -8 -20 0 -20 7 0 8 -6 1
-18 -7 -13 -6 -23 1 -30 9 -9 9 -12 0 -12 -9 0 -10 -5 -3 -18 7 -13 6 -23 -1
-30 -8 -8 -8 -12 -2 -12 13 0 12 -43 -1 -52 -6 -5 -5 -8 3 -8 9 0 10 -5 3 -19
-6 -10 -7 -22 -3 -26 7 -7 9 -13 11 -46 0 -11 5 -17 11 -14 9 6 14 -8 11 -28
0 -4 5 -6 11 -5 7 2 12 -2 11 -8 -1 -7 6 -10 17 -7 15 4 20 0 21 -13 0 -18 1
-18 9 1 8 19 9 19 9 1 1 -16 3 -17 18 -5 11 10 14 10 9 2 -8 -14 6 -18 18 -6
13 13 76 10 88 -4 9 -11 14 -11 29 3 15 14 19 14 19 3 0 -11 2 -11 10 1 7 11
10 11 10 2 0 -9 5 -10 18 -3 26 14 34 14 42 1 5 -9 13 -9 27 -2 15 8 24 8 33
-1 9 -8 11 -9 6 0 -8 14 11 11 44 -7 21 -11 23 -11 13 1 -9 11 -6 14 16 13 15
0 32 -4 38 -7 6 -4 19 1 29 10 17 17 17 17 12 -5 -6 -23 -6 -23 13 -6 13 12
19 13 19 4 0 -10 3 -10 15 0 9 7 15 8 15 2 0 -5 7 -12 14 -15 10 -4 13 -1 10
7 -3 7 2 13 10 13 8 0 13 -3 11 -7 -2 -4 16 -7 40 -6 25 1 45 6 45 11 0 6 5 3
10 -5 9 -13 10 -13 10 0 0 13 1 13 10 0 9 -13 11 -13 20 0 8 12 10 12 10 1 0
-11 3 -11 15 -1 12 10 15 10 15 -2 0 -8 7 -15 15 -15 10 0 12 4 5 12 -11 13
17 14 38 1 7 -4 12 -2 12 6 0 9 3 9 10 -2 9 -13 11 -13 20 0 8 12 10 12 10 1
0 -10 3 -11 14 -2 10 9 16 8 26 -4 12 -14 15 -14 31 1 16 14 18 14 22 -3 4
-16 5 -16 6 2 1 15 3 17 10 6 7 -10 13 -11 31 -1 12 7 20 8 16 2 -3 -5 5 -10
19 -10 14 1 22 5 18 11 -4 6 -1 7 8 1 21 -13 39 -14 39 -2 0 6 6 5 15 -2 12
-10 15 -10 15 1 0 12 2 12 9 0 6 -10 10 -10 16 -1 6 9 10 9 16 -1 7 -11 9 -11
9 1 0 13 1 13 10 0 9 -13 11 -13 20 0 7 11 10 11 10 2 0 -7 5 -10 11 -6 16 10
79 12 73 2 -8 -12 10 -10 24 4 7 7 12 8 12 4 0 -5 8 -2 18 5 15 12 16 12 4 -2
-11 -14 -8 -16 26 -14 21 1 43 5 49 8 7 4 15 2 19 -4 5 -8 3 -9 -6 -4 -9 5
-11 4 -6 -4 5 -8 12 -9 20 -2 7 6 24 8 39 5 18 -3 27 0 27 8 0 10 2 10 9 -1 5
-7 11 -9 14 -4 7 11 104 9 115 -2 4 -5 1 -5 -7 0 -10 6 -12 4 -6 -5 6 -10 11
-9 22 5 7 11 13 14 13 8 0 -7 9 -11 20 -10 11 1 20 6 20 11 0 5 7 1 16 -10 8
-10 13 -14 10 -9 -2 6 4 16 14 23 15 9 18 9 14 -1 -3 -8 2 -14 10 -14 8 0 13
3 11 7 -2 4 2 7 10 7 8 0 12 -4 9 -9 -8 -13 20 -9 35 5 11 9 13 9 7 0 -5 -8
-1 -13 9 -13 10 0 13 5 9 12 -4 7 2 5 13 -5 17 -15 22 -15 31 -4 7 8 8 18 4
22 -4 5 -1 5 6 1 7 -5 11 -14 8 -22 -3 -8 0 -11 10 -7 7 3 14 10 14 17 0 6 5
4 10 -4 9 -13 11 -13 20 0 8 12 10 12 10 1 0 -11 3 -11 17 0 11 10 14 10 9 1
-9 -16 6 -16 23 1 11 9 13 9 7 0 -5 -9 0 -13 13 -13 12 0 21 6 21 13 0 8 4 7
10 -3 9 -13 10 -13 10 0 0 13 1 13 10 0 9 -13 11 -13 20 0 8 12 10 12 10 1 0
-11 3 -11 15 -1 12 10 15 9 16 -6 0 -18 1 -18 9 1 5 11 9 14 9 8 1 -7 6 -13
12 -13 5 0 8 4 5 9 -7 11 13 9 32 -2 6 -5 12 -4 12 2 0 10 25 9 36 -2 4 -4 14
-1 22 6 10 8 13 8 9 1 -4 -7 0 -14 8 -18 8 -3 14 -2 14 2 -3 19 2 25 11 12 9
-13 11 -13 20 0 8 12 10 12 10 1 0 -9 4 -10 13 -4 19 15 107 9 118 -8 7 -11 9
-10 9 6 0 17 2 17 10 5 9 -13 10 -13 10 0 0 13 1 13 10 0 9 -13 10 -13 10 0 0
13 1 13 10 0 9 -13 10 -13 10 0 0 13 1 13 10 0 9 -13 11 -13 20 0 7 11 10 11
10 2 0 -8 5 -10 13 -5 17 11 37 13 37 3 0 -4 7 -10 14 -13 10 -4 13 -1 10 7
-3 7 2 13 10 13 8 0 13 -4 10 -8 -7 -12 40 -6 48 6 5 6 8 6 8 -2 0 -7 5 -13
11 -13 5 0 8 4 5 8 -2 4 11 7 30 7 23 0 34 -5 34 -14 0 -11 4 -9 16 5 8 10 13
14 9 7 -6 -13 44 -11 66 3 9 5 10 2 6 -12 -7 -18 -7 -18 8 0 9 12 15 15 15 7
0 -9 4 -10 13 -4 10 8 51 10 60 3 6 -5 67 -6 67 -1 0 3 11 6 25 6 18 0 24 -4
20 -14 -4 -10 1 -9 15 4 19 18 20 18 21 -1 0 -18 1 -18 9 1 5 11 9 15 9 9 1
-12 30 -12 49 0 8 5 12 1 12 -11 0 -15 2 -16 10 -3 5 8 10 11 10 6 0 -5 8 -2
17 5 11 10 14 10 9 2 -11 -19 5 -15 20 5 13 16 14 16 8 -1 -5 -14 -2 -16 17
-13 13 3 24 5 24 6 0 1 8 3 18 5 9 2 15 -1 12 -5 -7 -11 36 -7 54 5 10 6 12 4
6 -6 -8 -12 -6 -12 8 0 16 13 22 8 18 -13 -1 -5 5 -4 13 4 9 7 16 9 16 6 0 -4
9 -2 19 4 14 7 22 7 26 0 5 -8 12 -7 23 2 14 11 15 10 9 -7 -7 -20 -7 -20 8
-1 8 11 15 15 15 9 0 -16 28 -24 36 -11 4 6 3 8 -4 4 -6 -3 -13 -2 -16 2 -6
10 34 10 51 -1 6 -4 14 -1 16 5 4 10 6 10 6 0 1 -8 6 -10 13 -6 19 12 68 12
61 1 -4 -6 3 -8 15 -5 12 4 25 2 28 -4 4 -5 13 -3 23 6 14 13 20 13 31 3 10
-9 11 -9 6 1 -4 6 -2 12 3 12 6 0 11 -6 11 -12 0 -10 3 -9 9 1 7 11 9 11 14 0
4 -9 8 -10 14 -4 4 6 16 11 26 11 15 2 16 -1 5 -14 -12 -14 -10 -14 12 -2 30
17 52 21 45 10 -3 -4 4 -10 15 -13 11 -3 18 -1 15 3 -3 5 -1 11 5 15 5 3 10 1
10 -5 0 -6 5 -8 13 -3 6 4 31 8 55 8 35 1 42 -2 37 -14 -5 -13 -4 -13 6 -4 8
8 18 9 31 2 10 -5 18 -6 17 -2 -4 22 3 25 17 7 8 -10 13 -13 9 -6 -3 6 0 13 7
13 44 4 74 3 85 -4 6 -4 14 -3 18 3 3 5 11 10 16 10 6 0 8 -4 5 -9 -7 -10 44
-9 62 2 7 5 12 3 12 -3 0 -6 5 -8 10 -5 6 4 8 10 6 14 -6 9 48 6 63 -4 6 -3
11 2 12 12 0 16 1 16 9 -2 5 -11 9 -14 9 -7 1 6 6 12 12 12 5 0 8 -4 5 -9 -3
-4 6 -6 19 -3 14 2 28 8 31 13 3 5 10 9 15 9 6 0 7 -5 4 -11 -4 -6 2 -5 14 3
12 7 21 17 21 23 0 5 4 4 9 -4 8 -13 12 -13 27 0 16 12 17 12 9 -1 -6 -12 -5
-13 6 -2 17 16 32 16 24 0 -4 -7 0 -5 8 4 11 14 16 15 27 5 9 -9 11 -9 6 0 -3
6 -2 14 4 18 5 3 10 1 10 -6 0 -7 8 -6 24 5 15 10 27 12 31 6 3 -6 11 -10 16
-10 6 0 8 3 6 8 -3 4 2 14 11 22 14 13 15 12 9 -4 -6 -16 -5 -17 8 -6 8 7 15
9 15 4 0 -5 5 -2 10 6 5 8 10 10 10 4 0 -6 6 -11 14 -11 8 0 12 6 9 13 -3 8 4
11 21 10 15 -2 27 3 31 11 3 9 12 12 20 9 8 -3 15 0 15 7 0 8 4 6 10 -3 5 -8
10 -10 10 -4 0 16 46 23 60 10 7 -6 11 -7 10 -1 -6 27 1 37 20 32 11 -3 18 -1
14 4 -3 5 4 9 16 9 12 0 18 4 15 10 -4 6 1 7 11 3 11 -4 15 -3 10 5 -4 7 1 10
14 7 11 -2 20 0 20 5 0 5 9 7 20 5 11 -2 19 -1 16 3 -2 4 2 13 10 20 10 9 14
10 14 1 0 -7 9 -2 20 11 11 13 20 18 20 12 0 -7 5 -12 12 -12 6 0 9 3 5 6 -9
9 19 34 38 34 9 0 13 5 10 10 -3 6 1 10 9 10 9 0 16 6 16 13 0 8 4 7 10 -3 7
-11 10 -11 10 -2 0 7 4 11 9 7 5 -3 13 4 16 15 6 18 9 19 23 8 10 -8 13 -9 9
-1 -4 7 1 14 13 18 11 4 18 10 15 15 -3 5 8 11 25 15 16 4 29 10 29 13 -3 20
2 25 11 12 8 -13 10 -12 10 4 0 13 5 16 16 12 14 -6 15 -4 4 9 -7 9 -9 15 -4
14 21 -4 35 2 29 11 -3 6 1 10 9 10 9 0 16 7 16 16 0 10 6 14 14 11 8 -3 18 5
25 19 6 14 16 22 21 19 6 -3 10 1 10 9 0 15 12 21 33 17 5 -1 6 2 3 7 -3 5 4
14 14 22 10 8 16 18 13 24 -4 5 1 7 11 3 9 -4 15 -3 12 1 -2 4 2 16 10 27 10
13 14 15 14 4 1 -8 8 -1 16 14 8 16 20 25 26 21 6 -4 8 -3 5 4 -11 16 3 41 20
35 10 -4 14 0 11 13 -2 11 6 22 20 30 17 8 20 13 10 17 -8 4 -7 6 5 6 10 1 15
5 12 11 -3 5 5 21 18 34 14 14 22 28 18 32 -3 4 2 4 11 1 12 -4 15 -2 11 8 -3
8 2 18 11 21 9 3 16 12 16 19 0 6 9 22 20 35 11 12 18 26 15 30 -2 4 6 18 18
30 20 22 27 37 29 67 1 9 5 10 14 2 9 -7 12 -3 10 20 -1 16 1 28 5 25 4 -2 13
4 20 13 12 14 12 16 -1 9 -9 -5 -8 -2 2 7 14 11 15 16 5 27 -7 7 -7 10 -2 8
14 -8 32 14 29 35 -1 9 2 17 8 17 6 0 7 7 4 16 -3 8 -2 12 4 9 6 -3 10 1 10
10 0 9 4 14 8 11 5 -3 8 10 7 28 0 25 3 32 14 28 9 -3 12 0 9 9 -3 8 2 20 9
27 10 11 11 17 2 28 -8 10 -8 14 0 14 6 0 11 7 11 16 0 8 4 13 9 9 5 -3 13 0
17 6 4 8 3 9 -5 5 -15 -10 -7 39 9 59 7 8 9 19 5 25 -3 5 -2 10 4 10 6 0 7 7
4 17 -4 11 -3 14 5 9 8 -4 10 -2 6 7 -3 8 -1 18 5 21 6 4 8 13 5 21 -4 9 2 18
12 22 11 3 22 11 26 17 5 7 8 7 8 -1 0 -7 6 -13 14 -13 8 0 17 6 19 13 4 10 6
10 6 0 1 -7 6 -13 12 -13 5 0 7 5 4 10 -9 15 2 12 19 -6 9 -9 16 -11 16 -4 0
6 5 8 10 5 6 -3 10 -1 10 6 0 9 3 9 14 0 10 -8 16 -9 21 -1 3 6 12 7 18 3 7
-4 20 -6 31 -4 13 2 16 -1 10 -11 -4 -7 3 -4 16 7 13 11 20 15 17 9 -4 -7 0
-15 9 -18 8 -3 12 -2 9 4 -3 6 -2 10 4 10 5 0 13 -5 17 -12 5 -7 11 -5 21 7 9
13 13 15 13 5 0 -11 3 -11 12 -2 9 9 16 8 32 -6 11 -9 16 -11 12 -4 -5 9 3 12
32 12 23 0 45 6 52 15 7 9 19 14 27 11 8 -3 12 -2 9 3 -3 5 2 12 11 15 15 6
15 8 3 16 -12 8 -12 10 4 10 15 0 16 3 7 14 -9 10 -8 15 4 20 19 7 21 76 3 76
-9 0 -8 4 2 10 11 7 11 10 2 10 -7 0 -10 5 -7 10 3 6 -2 10 -12 11 -16 0 -16
1 2 9 18 8 18 9 2 9 -10 1 -15 6 -12 11 3 6 -1 10 -9 10 -8 0 -18 5 -22 12 -4
7 -3 8 4 4 7 -4 12 -5 12 -2 0 3 -10 10 -21 17 -15 7 -19 8 -15 0 5 -7 1 -9
-8 -5 -9 3 -14 9 -12 13 2 3 -22 6 -54 6 -50 0 -57 -2 -47 -15 6 -8 2 -6 -11
4 -13 12 -22 14 -22 7 0 -7 -5 -9 -12 -5 -19 12 -48 12 -49 0 0 -6 -4 -2 -9 9
-7 16 -9 17 -9 3 -1 -9 -6 -20 -13 -24 -6 -4 -8 -3 -4 4 3 6 2 13 -4 17 -5 3
-10 1 -10 -5 0 -6 -5 -8 -10 -5 -6 4 -8 12 -4 18 3 7 -1 4 -9 -5 -8 -10 -16
-16 -18 -14 -9 10 -89 12 -89 3 0 -5 -8 -3 -17 4 -10 8 -14 9 -10 2 10 -17
-34 -8 -45 9 -5 9 -8 8 -8 -5 0 -15 -3 -16 -20 -7 -15 8 -20 8 -20 -1 0 -8 -5
-7 -17 2 -14 12 -16 12 -9 -1 4 -8 0 -6 -8 4 -15 19 -16 19 -16 1 0 -18 0 -18
-13 0 -8 10 -19 15 -25 11 -8 -4 -12 0 -12 11 0 15 -2 16 -10 3 -9 -13 -10
-13 -11 0 -1 8 -1 18 0 23 0 4 -3 7 -9 7 -5 0 -10 7 -10 15 0 8 -5 15 -11 15
-8 0 -7 6 2 17 8 9 9 14 3 10 -7 -4 -14 0 -18 8 -3 8 -1 15 3 15 5 0 7 9 4 20
-3 12 0 20 7 20 9 0 9 4 -1 17 -10 11 -10 14 -1 9 11 -7 17 6 12 29 -1 6 1 7
5 4 3 -4 18 4 32 17 16 14 39 24 59 25 19 1 40 2 47 3 6 1 20 -2 31 -7 13 -6
16 -6 12 2 -9 14 0 14 24 1 13 -7 21 -7 26 2 5 7 3 8 -6 3 -8 -5 -11 -4 -6 3
4 6 13 9 21 6 8 -4 12 -10 9 -15 -3 -5 2 -6 10 -3 9 3 13 11 9 18 -3 6 -1 6 8
-2 7 -6 19 -12 27 -12 8 0 10 5 6 12 -5 9 -2 8 9 -1 10 -8 20 -11 24 -8 3 4
12 2 19 -3 8 -8 17 -6 28 5 9 9 16 12 16 7 0 -6 7 -13 16 -16 8 -3 12 -2 9 4
-3 6 1 10 10 10 10 0 13 -5 9 -12 -6 -10 -4 -10 7 -3 17 12 39 13 58 1 10 -6
12 -5 7 2 -5 8 1 12 14 12 14 0 19 -4 14 -12 -5 -9 -2 -9 9 1 9 7 17 9 17 4 0
-12 48 -4 56 9 3 5 10 5 17 0 16 -12 58 -22 52 -12 -2 4 6 8 20 8 14 0 22 -5
19 -10 -4 -7 0 -7 12 -1 11 6 30 7 44 3 14 -4 35 -2 47 3 16 7 27 6 40 -4 14
-12 16 -12 8 0 -6 11 -4 13 10 7 11 -4 22 -2 27 6 6 10 8 10 8 -1 0 -11 4 -10
16 5 8 10 13 14 10 8 -3 -6 1 -11 9 -11 8 0 12 3 10 7 -3 4 4 15 15 25 11 10
17 22 13 28 -4 6 0 8 9 5 11 -5 14 1 13 23 -1 16 3 29 9 29 6 0 4 5 -4 10 -11
7 -11 10 -2 10 9 0 10 5 3 19 -6 10 -8 21 -4 24 3 4 0 14 -8 24 -12 14 -12 16
0 8 10 -5 12 -4 7 3 -4 7 -14 12 -22 12 -8 0 -14 6 -14 13 0 8 -12 24 -27 38
-14 13 -23 18 -19 12 4 -7 2 -13 -3 -13 -6 0 -11 3 -11 8 0 10 -82 9 -99 -2
-9 -6 -12 -5 -8 0 3 6 -33 9 -93 8 -65 -1 -97 2 -93 9 4 6 1 7 -8 2 -21 -14
-221 -14 -238 -1 -11 8 -13 8 -8 0 4 -7 -6 -11 -28 -12 -22 -1 -35 3 -35 11 0
8 -4 7 -10 -3 -8 -13 -10 -13 -10 0 0 10 -3 11 -11 3 -6 -6 -18 -9 -27 -6 -11
5 -13 2 -7 -6 6 -10 3 -11 -13 -2 -27 14 -35 14 -26 -1 5 -9 2 -9 -9 1 -9 7
-17 10 -17 6 0 -4 -8 -1 -17 6 -9 8 -14 9 -10 3 4 -8 -27 -11 -108 -10 -76 1
-111 -2 -107 -9 3 -5 -7 -2 -22 9 -16 10 -26 13 -22 8 4 -7 -12 -9 -44 -8 -30
2 -50 -1 -50 -7 0 -6 -7 -2 -16 9 -8 10 -13 14 -9 7 4 -9 -6 -11 -34 -9 -23 2
-42 -2 -45 -8 -3 -7 -5 -6 -5 2 -1 7 -6 10 -11 7 -6 -4 -17 -2 -25 5 -8 7 -15
7 -19 1 -4 -5 -15 -8 -26 -6 -11 2 -20 -2 -20 -8 0 -7 -4 -6 -10 3 -5 8 -10
11 -10 5 0 -5 -5 -3 -10 5 -5 8 -10 11 -10 5 0 -5 -29 -11 -65 -11 -42 -1 -62
2 -58 9 4 6 1 7 -8 1 -21 -13 -82 -13 -98 0 -12 9 -13 8 -7 -3 7 -10 3 -12
-14 -6 -12 4 -20 3 -17 -1 3 -5 -8 -9 -23 -9 -15 0 -26 3 -23 8 7 12 -12 8
-25 -5 -9 -9 -12 -9 -12 1 0 7 -8 11 -17 9 -10 -1 -24 1 -32 6 -10 6 -12 5 -7
-2 5 -8 -5 -11 -28 -10 -23 1 -33 5 -29 12 5 8 2 8 -8 0 -8 -6 -35 -11 -61
-10 -28 1 -48 -3 -48 -9 0 -5 -4 -4 -9 4 -5 8 -16 11 -25 8 -9 -4 -16 -1 -16
6 0 8 -3 8 -8 2 -4 -6 -14 -10 -22 -10 -8 0 -18 -4 -22 -10 -5 -6 -8 -5 -8 3
0 9 -7 11 -21 7 -16 -6 -20 -4 -13 6 6 11 5 11 -9 0 -10 -8 -20 -11 -24 -8 -3
4 -15 2 -26 -4 -13 -7 -17 -7 -13 -1 3 6 2 13 -4 17 -5 3 -10 2 -10 -3 0 -5
-7 -9 -15 -9 -8 0 -15 4 -15 8 0 5 -7 6 -15 3 -8 -4 -15 -1 -15 6 0 6 -4 8
-10 5 -5 -3 -10 -1 -10 5 0 6 -5 8 -10 5 -6 -4 -10 -3 -9 2 3 18 -1 34 -9 29
-4 -2 -12 11 -18 29 -6 19 -7 32 -2 29 4 -3 8 0 8 5 0 6 -5 11 -11 11 -8 0 -7
6 2 17 12 15 12 16 -1 8 -13 -8 -13 -7 -1 8 11 14 11 17 0 17 -10 1 -9 4 3 11
9 5 15 16 12 23 -3 9 1 13 13 13 11 -1 18 4 17 15 -1 10 2 15 8 12 5 -3 16 0
25 8 14 11 16 11 9 -2 -4 -8 2 -4 14 10 12 14 19 20 16 14 -3 -7 1 -14 9 -18
8 -3 15 -1 15 3 0 5 10 7 22 3 16 -4 19 -2 13 8 -5 9 0 8 15 -3 17 -12 28 -13
43 -6 13 8 22 8 30 0 6 -6 16 -7 27 -1 9 5 22 5 30 0 7 -4 24 -4 37 1 16 6 22
5 18 -1 -3 -6 -2 -10 3 -10 6 0 13 7 16 16 5 13 9 14 21 4 12 -10 18 -10 29
-1 11 9 16 9 21 0 6 -8 10 -7 16 2 7 11 9 10 9 -4 0 -17 1 -17 16 -3 19 19 31
21 16 3 -15 -18 42 -14 65 5 9 7 14 8 10 2 -9 -15 16 -25 34 -13 18 11 32 12
25 1 -4 -7 33 -8 42 -2 7 7 30 5 47 -3 18 -9 19 -8 6 6 -17 21 -8 22 13 1 12
-12 16 -12 16 -2 0 10 3 9 10 -2 8 -12 10 -12 10 -1 0 11 3 11 15 1 10 -8 15
-9 15 -2 0 7 7 9 17 5 12 -5 14 -3 8 8 -6 11 -5 12 6 1 17 -16 32 -16 23 1 -5
8 -2 8 9 -2 13 -10 20 -11 31 -2 11 9 16 9 22 0 5 -8 3 -10 -7 -4 -8 5 -11 4
-6 0 11 -12 47 -14 40 -2 -4 6 0 8 10 4 10 -3 17 -2 17 4 0 6 7 3 16 -5 17
-17 28 -21 20 -7 -3 5 16 7 44 5 37 -2 49 0 45 9 -4 7 1 3 9 -7 10 -13 16 -15
16 -7 0 10 3 11 13 3 8 -7 18 -7 27 -2 20 13 33 12 25 0 -3 -5 -1 -10 4 -10 6
0 11 7 11 16 0 8 5 12 10 9 6 -4 7 -12 3 -18 -4 -7 0 -6 10 2 12 10 17 10 17
2 0 -8 6 -7 16 4 11 10 20 12 28 6 6 -5 26 -8 43 -7 18 1 35 -3 37 -8 2 -6 5
-3 5 8 1 16 3 16 21 -5 11 -13 20 -19 19 -14 -3 22 2 25 21 15 15 -8 20 -8 20
1 0 8 4 8 15 -1 12 -10 15 -10 15 0 0 8 3 10 7 7 3 -4 13 -1 21 6 11 8 14 8 9
0 -5 -8 3 -11 25 -9 18 1 41 -2 50 -6 14 -7 16 -5 11 8 -5 14 -3 14 15 3 17
-11 23 -10 38 2 16 13 17 12 10 -6 -6 -16 -5 -18 5 -8 17 17 32 17 24 1 -4 -7
1 -4 9 6 15 18 20 15 17 -9 -1 -5 6 -1 14 9 15 20 15 20 15 0 0 -14 2 -16 9
-5 6 9 11 10 15 2 5 -7 13 -8 25 -1 10 5 21 7 23 4 10 -10 48 -13 43 -3 -4 5
-11 6 -17 3 -7 -4 -8 -2 -4 4 5 8 13 9 25 2 12 -6 22 -5 31 3 9 8 11 8 7 1 -4
-7 0 -15 9 -18 8 -3 13 -2 10 3 -3 5 1 12 10 15 12 4 15 2 10 -9 -5 -13 -3
-13 18 1 17 10 26 12 31 4 5 -8 11 -7 23 2 13 11 14 11 8 0 -6 -9 -1 -12 18
-10 14 2 28 7 32 11 4 3 16 0 26 -8 22 -15 51 -9 42 9 -3 6 1 3 8 -6 13 -15
15 -15 26 0 7 9 10 12 7 6 -2 -7 2 -15 11 -18 24 -9 31 -7 14 5 -11 8 -8 9 13
4 22 -4 27 -3 22 7 -4 7 1 4 9 -6 9 -11 16 -14 16 -8 0 9 5 10 18 3 14 -7 25
-6 42 6 13 9 20 11 16 5 -5 -8 4 -11 28 -10 23 1 33 5 29 12 -4 6 1 5 10 -3
14 -11 17 -11 17 0 0 11 2 11 10 -1 7 -11 10 -12 10 -2 0 10 4 10 15 -2 17
-17 49 -11 38 8 -3 6 -1 6 8 -1 17 -16 43 -17 33 -1 -5 7 -3 8 7 2 21 -13 41
-14 61 -3 14 7 20 6 24 -6 6 -14 8 -14 21 2 8 10 11 12 7 4 -5 -11 -3 -13 9
-8 9 3 19 2 22 -3 4 -6 13 -7 23 -1 11 6 24 5 36 -1 12 -7 17 -7 12 0 -3 5 1
13 10 16 8 3 12 2 9 -4 -3 -6 -2 -10 4 -10 5 0 12 4 15 9 9 13 47 1 39 -13 -3
-6 3 -3 14 7 14 12 23 15 28 7 4 -6 16 -8 28 -4 20 6 21 5 7 -12 -14 -18 -14
-18 6 -1 11 9 24 14 29 10 4 -5 5 -2 1 5 -6 11 5 17 27 13 4 0 7 3 7 9 0 6 6
9 13 8 6 -2 11 5 11 15 -1 9 4 17 10 17 7 0 17 18 23 40 6 26 7 40 0 40 -5 0
-4 7 3 15 10 12 10 15 0 15 -7 0 -10 6 -7 14 3 7 0 19 -6 25 -6 6 -8 11 -4 11
4 0 -3 10 -15 22 -13 13 -26 22 -30 20 -5 -1 -8 6 -8 15 0 15 -2 16 -10 3 -6
-9 -10 -10 -10 -3 0 6 -10 15 -23 19 -32 11 -130 11 -144 1 -8 -6 -13 -6 -13
0 0 10 -47 9 -57 -1 -4 -3 -12 -1 -20 5 -10 9 -13 8 -13 -2 0 -11 -2 -11 -9 0
-8 12 -12 12 -25 2 -13 -11 -16 -11 -16 0 0 11 -2 11 -10 -1 -5 -8 -10 -10
-10 -5 0 15 -41 17 -57 3 -7 -6 -13 -6 -13 -1 0 5 -9 9 -19 9 -11 0 -17 -4
-15 -8 3 -4 0 -8 -5 -8 -6 0 -11 4 -11 8 0 5 -7 9 -15 9 -8 0 -12 -4 -9 -9 3
-4 0 -8 -5 -8 -6 0 -11 5 -11 11 0 8 -4 9 -13 0 -8 -6 -16 -8 -20 -5 -9 9 -57
12 -51 3 3 -5 0 -9 -5 -9 -6 0 -11 5 -11 11 0 8 -5 8 -15 -1 -8 -7 -15 -8 -15
-3 0 10 -36 11 -46 1 -3 -4 -17 -3 -31 3 -16 6 -22 6 -18 -1 3 -6 1 -10 -4
-10 -6 0 -11 6 -11 13 0 9 -3 8 -9 -2 -7 -10 -10 -10 -13 -1 -3 10 -9 10 -27
0 -18 -9 -22 -9 -16 0 6 9 3 9 -13 1 -15 -8 -21 -8 -25 2 -3 9 -7 9 -20 -2
-10 -7 -17 -9 -17 -3 0 10 -62 8 -80 -3 -5 -3 -10 -1 -10 6 0 8 -4 8 -15 -1
-10 -9 -15 -9 -15 -1 0 6 -5 11 -11 11 -5 0 -7 -5 -3 -11 5 -8 1 -8 -14 0 -24
13 -35 14 -28 3 2 -4 -8 -8 -24 -7 -15 0 -26 3 -23 7 7 13 -12 9 -26 -5 -11
-10 -12 -9 -6 3 8 13 7 13 -8 1 -11 -9 -17 -10 -17 -2 0 12 -40 9 -61 -5 -8
-4 -9 -3 -5 4 10 16 -7 15 -23 -1 -11 -10 -12 -9 -6 3 8 13 7 13 -8 1 -14 -11
-17 -11 -17 0 0 11 -2 11 -10 -1 -8 -12 -10 -12 -10 -1 0 11 -3 11 -15 1 -12
-10 -15 -10 -15 0 0 10 -3 10 -15 0 -12 -10 -15 -10 -15 0 0 10 -3 10 -15 0
-12 -10 -15 -10 -15 0 0 10 -3 10 -15 0 -10 -9 -15 -9 -15 -1 0 6 -5 11 -11
11 -5 0 -7 -6 -3 -12 6 -10 5 -10 -7 -1 -12 10 -18 10 -27 1 -9 -9 -12 -9 -12
0 0 12 -24 11 -65 -3 -16 -6 -17 -5 -5 4 12 9 10 11 -10 8 -14 -1 -31 -6 -37
-10 -8 -5 -13 -4 -13 3 0 8 -6 7 -21 -1 -15 -8 -19 -8 -15 0 4 6 1 11 -8 11
-8 0 -18 -5 -21 -10 -5 -8 -11 -8 -20 0 -15 12 -36 10 -47 -5 -5 -6 -11 -5
-17 4 -8 12 -12 12 -25 2 -10 -8 -16 -9 -16 -3 0 12 -39 10 -59 -3 -9 -5 -12
-4 -8 2 4 6 -4 10 -18 10 -14 0 -22 -4 -18 -10 4 -6 1 -7 -7 -2 -7 4 -40 8
-74 9 -34 1 -67 5 -75 10 -10 6 -12 6 -7 -2 4 -7 2 -12 -4 -12 -6 0 -13 7 -16
15 -4 8 -12 15 -18 15 -7 0 -21 20 -33 45 -11 24 -15 42 -9 38 6 -3 5 0 -1 8
-17 17 -17 32 0 23 9 -5 9 -4 0 6 -10 10 -8 20 9 43 12 17 17 27 10 23 -7 -4
-12 -2 -12 3 0 6 7 11 15 11 8 0 19 9 26 21 7 14 17 19 30 16 11 -3 19 0 19 6
0 8 4 7 9 -2 7 -11 11 -10 20 5 6 11 11 13 11 7 0 -7 12 -13 26 -13 16 0 23 4
18 12 -5 7 -3 8 7 2 22 -13 42 -14 58 -1 11 9 13 9 8 0 -10 -16 112 -16 132 0
12 9 13 9 7 0 -4 -8 -1 -13 8 -13 9 0 16 6 16 13 0 8 3 9 8 1 4 -6 24 -10 45
-10 21 1 41 -2 44 -7 2 -4 11 -3 19 4 11 9 14 8 14 -2 0 -11 2 -11 9 0 8 13
12 13 27 0 10 -8 15 -9 11 -2 -4 6 -3 14 3 18 5 3 10 2 10 -2 0 -5 21 -8 48
-8 26 1 59 -2 74 -6 17 -5 30 -3 34 3 4 6 2 8 -4 4 -6 -3 -13 -2 -16 3 -8 13
33 2 68 -17 5 -3 6 0 1 7 -5 9 -1 12 11 10 11 -2 25 0 33 5 11 7 12 6 6 -5 -7
-11 -6 -12 7 -2 8 7 18 10 21 6 4 -3 7 2 7 13 0 16 2 17 10 4 9 -13 14 -7 11
13 0 4 3 7 9 7 5 0 10 6 10 14 0 8 5 16 12 18 6 2 13 11 14 19 2 7 5 24 8 37
3 12 0 22 -6 22 -7 0 -6 5 1 14 8 10 9 16 1 21 -6 3 -8 11 -5 16 4 5 -2 9 -12
9 -15 0 -16 2 -3 10 11 7 11 10 2 10 -7 0 -10 5 -7 10 3 6 1 10 -4 10 -6 0
-11 8 -11 18 0 14 -2 15 -10 2 -8 -13 -10 -12 -10 3 0 12 -8 17 -26 17 -16 0
-23 4 -18 12 5 7 3 8 -7 2 -19 -11 -42 -11 -51 0 -4 6 -12 5 -21 -3 -11 -8
-17 -9 -22 -1 -5 8 -15 6 -32 -5 -14 -10 -23 -12 -19 -7 3 6 2 13 -3 16 -5 4
-13 2 -16 -4 -5 -8 -11 -7 -21 1 -11 9 -14 8 -14 -2 0 -11 -2 -11 -10 1 -8 13
-10 12 -10 -3 0 -17 -1 -17 -16 -2 -11 11 -20 13 -28 6 -9 -7 -17 -7 -26 2
-10 9 -11 9 -6 0 8 -14 -6 -18 -18 -6 -10 10 -46 11 -40 1 8 -13 -29 -6 -38 7
-5 6 -8 5 -8 -3 0 -9 -5 -10 -19 -2 -14 7 -21 6 -24 -3 -3 -6 -6 -2 -6 11 -1
12 -7 21 -13 20 -8 -2 -12 5 -10 16 2 10 -1 15 -6 12 -5 -3 -15 7 -23 21 -8
15 -24 37 -37 50 -13 13 -21 27 -18 32 3 5 -2 15 -12 22 -16 13 -16 13 -2 -6
14 -19 14 -19 -2 -6 -10 7 -18 20 -18 27 0 8 -4 14 -10 14 -5 0 -10 9 -10 21
0 11 -4 18 -9 15 -5 -4 -20 7 -34 23 -14 17 -28 27 -32 23 -5 -4 -5 -1 -1 6 4
7 1 15 -8 18 -9 3 -16 12 -16 20 0 8 -5 14 -11 14 -5 0 -7 4 -4 10 4 6 -1 7
-11 3 -13 -5 -15 -3 -9 7 6 10 4 12 -7 7 -12 -4 -15 0 -12 16 2 12 2 16 -2 10
-3 -7 -10 -13 -15 -13 -6 0 -8 4 -5 9 3 4 -3 19 -14 31 -11 13 -20 20 -20 17
0 -3 -11 5 -25 19 -14 14 -30 22 -35 19 -6 -4 -10 -3 -9 2 4 23 -3 31 -23 26
-19 -4 -20 -3 -8 6 13 9 13 11 -2 11 -10 0 -18 5 -18 10 0 6 -7 10 -15 10 -8
0 -15 7 -15 15 0 9 -6 12 -15 9 -8 -4 -17 1 -21 9 -3 9 -12 13 -20 10 -10 -4
-12 0 -8 11 5 12 2 15 -12 9 -12 -4 -15 -3 -10 5 5 8 0 12 -14 12 -14 0 -19 4
-14 13 5 7 0 6 -11 -3 -12 -10 -16 -11 -11 -2 5 9 -1 16 -21 24 l-29 11 29 28
c16 16 35 29 43 29 8 0 19 10 24 23 5 12 9 16 9 9 1 -7 12 -1 27 15 14 15 23
21 19 13 -4 -10 -2 -9 8 2 8 10 17 15 20 11 4 -3 7 -1 7 6 0 7 4 9 10 6 6 -3
7 1 4 10 -4 10 -2 15 7 13 8 -2 13 3 12 9 -2 7 1 12 6 10 5 -1 17 7 26 18 9
11 13 13 9 5 -4 -8 6 -2 24 15 18 16 32 35 32 41 0 6 8 18 18 25 15 13 16 12
3 -4 -8 -9 -11 -20 -7 -24 3 -3 6 -2 6 4 0 5 18 29 40 52 22 23 40 46 40 52 0
6 4 7 10 4 9 -5 11 -1 10 20 -1 9 24 31 40 38 9 3 10 6 3 6 -7 1 -13 5 -13 11
0 5 3 9 8 9 16 -3 35 1 30 7 -3 3 5 17 18 31 13 14 22 28 19 31 -2 3 5 15 18
27 12 11 23 28 25 36 2 7 8 16 13 17 5 2 9 10 9 18 0 8 5 14 11 14 5 0 8 4 5
9 -3 5 1 12 10 15 9 4 14 9 11 13 -4 3 1 12 11 20 9 8 11 12 5 8 -7 -3 -13 -2
-13 3 0 6 7 13 16 16 8 3 12 10 9 16 -3 5 -1 10 6 10 7 0 9 3 6 7 -4 3 1 12
11 20 9 8 10 11 2 7 -9 -5 -6 3 7 20 13 15 19 34 16 43 -4 10 -2 14 4 10 6 -4
13 0 17 8 3 8 0 15 -7 15 -7 0 -8 3 -2 8 17 12 41 47 28 38 -7 -4 -13 -3 -13
2 0 5 10 12 23 16 18 5 20 8 7 16 -11 7 -11 10 -2 10 7 0 10 5 7 10 -3 6 -2
10 4 10 5 0 8 9 6 20 -2 12 2 23 11 27 11 4 12 9 3 19 -9 11 -9 14 0 14 7 0 9
5 6 10 -3 6 -1 10 4 10 6 0 11 9 11 19 0 11 5 23 10 26 5 3 10 11 10 16 0 6
-4 7 -10 4 -6 -3 -7 1 -4 9 3 9 11 16 18 16 6 0 4 5 -4 10 -12 8 -12 10 -1 10
8 0 11 3 8 7 -4 3 -1 13 6 21 9 13 9 14 0 8 -9 -5 -11 -2 -7 8 3 9 11 16 16
16 6 0 4 8 -3 17 -10 11 -10 14 -1 9 12 -7 16 3 12 38 -1 13 2 16 12 10 10 -6
10 -4 -1 9 -9 12 -10 17 -2 17 7 0 9 5 6 10 -4 6 -1 18 7 27 9 12 9 15 1 9 -7
-4 -13 -3 -13 3 0 5 5 13 10 16 8 5 7 12 -2 23 -11 13 -11 14 1 8 9 -6 12 -5
9 5 -3 8 2 20 11 27 9 8 10 11 3 7 -8 -4 -11 1 -8 17 3 13 5 23 6 23 8 0 4 63
-4 74 -9 12 -7 13 6 9 17 -7 19 7 5 30 -5 6 -4 12 1 12 5 0 12 9 15 20 3 11 1
20 -4 20 -5 0 -9 5 -9 11 0 5 4 8 8 5 4 -2 8 4 8 14 0 10 -4 16 -9 13 -5 -3
-4 4 2 15 14 27 14 35 -1 25 -7 -4 -5 6 6 21 10 16 13 26 8 22 -6 -3 -13 -2
-17 4 -3 5 -2 10 4 10 11 0 9 19 -3 39 -6 9 -5 12 1 8 6 -4 14 0 17 9 3 8 2
12 -4 9 -6 -3 -10 -3 -11 2 0 4 -2 16 -4 26 -2 9 1 15 6 11 11 -6 7 25 -5 45
-7 11 -6 12 5 6 12 -8 12 -6 0 8 -9 12 -10 17 -2 17 7 0 9 5 4 13 -4 6 -8 15
-9 20 -1 4 -2 8 -4 10 -7 9 -6 37 2 37 7 0 7 5 -1 13 -6 8 -8 17 -4 20 3 4 0
13 -6 21 -9 11 -9 16 0 22 8 5 9 3 4 -6 -5 -8 -4 -11 3 -6 13 8 5 36 -10 36
-5 0 -6 9 -3 20 4 13 2 20 -6 20 -10 0 -10 3 -1 12 8 8 8 19 -3 44 -8 21 -10
36 -4 39 5 4 6 12 2 18 -8 13 -14 34 -15 57 0 8 -5 21 -10 27 -6 7 -8 20 -4
28 3 8 0 15 -7 15 -15 0 -17 40 -2 40 5 0 3 5 -7 10 -10 6 -14 18 -11 30 3 11
0 26 -6 34 -9 11 -9 15 1 19 8 3 6 6 -5 6 -10 1 -15 6 -12 11 3 6 0 17 -9 25
-8 9 -13 26 -10 41 3 16 1 23 -6 19 -6 -4 -10 5 -10 20 0 14 -4 24 -8 21 -5
-3 -9 1 -9 9 0 8 5 15 11 15 5 0 1 7 -10 15 -10 8 -15 15 -11 15 5 0 1 7 -7
16 -9 8 -14 20 -11 25 4 5 1 9 -4 9 -6 0 -11 7 -11 15 0 8 -4 15 -9 15 -4 0
-7 11 -6 25 2 16 -1 23 -7 18 -7 -4 -9 2 -5 16 5 19 3 20 -11 9 -9 -7 -13 -8
-9 -2 10 16 -47 120 -63 116 -11 -2 -10 1 1 14 9 12 9 15 2 10 -12 -7 -18 5
-14 27 1 4 -6 10 -14 13 -8 3 -12 10 -9 15 3 5 -3 9 -13 9 -15 0 -16 2 -3 10
13 9 8 14 -11 12 -4 -1 -6 12 -5 28 1 16 -1 27 -5 24 -4 -2 -19 7 -33 21 -14
14 -20 25 -13 26 7 0 -1 6 -17 13 -20 9 -25 15 -15 19 8 3 3 6 -11 6 -20 1
-22 3 -10 11 13 8 12 10 -2 10 -16 0 -23 18 -19 43 1 5 -3 6 -8 3 -5 -4 -12 3
-16 14 -3 11 -13 20 -21 20 -8 0 -15 5 -15 10 -1 6 -2 14 -3 19 0 5 -5 13 -10
18 -5 5 -6 2 -1 -7 6 -13 -10 4 -55 58 -6 7 -15 10 -20 7 -5 -3 -7 4 -5 15 2
11 0 18 -5 15 -5 -3 -18 3 -30 15 -11 11 -20 17 -20 13 0 -5 -8 7 -16 25 -9
17 -21 32 -26 32 -5 0 -6 -6 -3 -12 4 -7 -2 -4 -12 7 -10 12 -26 24 -35 28
-10 3 -18 11 -18 18 0 6 -7 9 -14 6 -9 -4 -17 2 -21 14 -4 10 -11 17 -16 14
-5 -4 -9 2 -9 11 0 10 -3 15 -6 11 -3 -3 -11 -1 -18 4 -50 42 -61 49 -73 44
-8 -2 -12 -1 -9 3 2 4 1 14 -5 22 -7 13 -9 13 -9 0 -1 -12 -3 -11 -11 3 -6 9
-14 15 -20 12 -5 -4 -9 -1 -9 6 0 8 -5 7 -17 -2 -11 -10 -14 -10 -9 -1 4 6 2
12 -3 12 -6 0 -11 6 -11 14 0 8 -9 12 -25 11 -14 -2 -23 0 -21 3 5 8 -15 26
-32 30 -7 1 -17 3 -24 5 -7 1 -21 10 -32 19 -15 14 -23 15 -33 6 -11 -9 -13
-8 -11 3 2 8 -3 13 -9 12 -7 -2 -13 2 -13 9 0 6 -3 8 -7 5 -3 -4 -15 1 -26 10
-11 10 -17 12 -13 6 4 -7 2 -13 -3 -13 -6 0 -11 4 -11 9 0 5 -7 12 -16 15 -8
3 -12 2 -9 -4 3 -5 -16 3 -41 17 -26 15 -44 21 -39 14 5 -8 -2 -7 -17 3 -14 9
-28 13 -31 9 -4 -3 -7 -1 -7 7 0 10 -4 10 -17 -1 -11 -10 -14 -10 -9 -1 7 12
0 15 -36 15 -10 0 -18 3 -18 8 0 4 -9 6 -20 4 -11 -2 -20 0 -20 6 0 5 -5 9
-11 9 -5 0 -7 -6 -3 -12 4 -7 -1 -6 -12 3 -10 9 -35 15 -56 15 -20 -1 -34 2
-32 6 2 4 0 9 -6 13 -5 3 -10 0 -10 -7 0 -8 -3 -9 -8 -3 -10 14 -52 15 -52 1
0 -6 -4 -5 -9 3 -6 8 -20 12 -39 9 -17 -2 -30 0 -29 5 1 5 -27 11 -62 13 -36
2 -67 6 -69 9 -2 2 -16 -1 -30 -6 -23 -9 -24 -8 -11 7 13 16 12 16 -7 6 -14
-8 -24 -8 -31 -1 -8 8 -13 7 -17 0 -4 -6 -12 -11 -17 -11 -6 0 -7 6 -3 13 5 8
2 8 -9 -2 -13 -10 -17 -10 -17 -1 0 10 -3 10 -14 1 -9 -7 -17 -8 -20 -2 -7 10
-25 9 -43 -2 -8 -5 -13 -3 -13 5 0 9 -3 9 -10 -2 -8 -12 -10 -12 -10 -1 0 10
-3 11 -14 2 -11 -9 -16 -9 -21 0 -6 8 -10 7 -16 -2 -5 -8 -9 -9 -9 -3 0 6 -7
11 -15 11 -8 0 -15 -5 -15 -10 0 -5 -8 -3 -17 4 -11 10 -14 10 -9 2 4 -7 3
-13 -3 -13 -5 0 -13 5 -16 10 -4 7 -13 7 -26 0 -14 -8 -19 -7 -19 2 0 9 -3 9
-10 -2 -9 -13 -10 -13 -10 0 0 13 -1 13 -10 0 -9 -13 -10 -13 -10 0 0 13 -1
13 -10 0 -9 -13 -11 -13 -19 -1 -8 12 -12 12 -24 2 -12 -9 -16 -9 -20 1 -4 11
-6 11 -6 0 -1 -10 -6 -10 -22 -1 -15 8 -19 8 -15 0 8 -12 -7 -15 -18 -4 -10
10 -106 10 -100 1 3 -5 1 -8 -5 -8 -5 0 -13 5 -16 10 -4 7 -12 7 -25 0 -13 -7
-21 -7 -25 0 -4 7 -13 7 -26 0 -14 -8 -19 -7 -19 2 0 9 -3 9 -10 -2 -8 -12
-10 -12 -10 -1 0 10 -3 11 -14 2 -11 -9 -16 -9 -21 0 -6 8 -10 7 -16 -2 -7
-12 -9 -12 -9 0 0 11 -3 11 -17 0 -11 -10 -14 -10 -9 -1 4 6 2 12 -3 12 -6 0
-11 -6 -11 -12 0 -8 -3 -9 -8 -3 -6 9 -27 11 -42 5 -3 -1 -15 -3 -27 -4 -19
-2 -21 0 -10 13 8 12 6 11 -9 -1 -23 -20 -39 -24 -29 -8 3 6 1 10 -4 10 -6 0
-11 -5 -11 -11 0 -8 -4 -8 -14 0 -11 9 -15 9 -19 -1 -4 -10 -6 -10 -6 0 -1 6
-6 12 -12 12 -5 0 -7 -5 -4 -10 10 -16 -18 -7 -33 10 -7 8 -12 11 -11 5 3 -23
-2 -27 -18 -14 -11 10 -14 10 -9 2 9 -16 1 -16 -26 -2 -15 8 -19 8 -14 0 4 -6
3 -11 -3 -11 -5 0 -12 4 -15 8 -4 7 -40 8 -56 2 -16 -7 -56 -4 -62 5 -5 6 -8
4 -8 -5 0 -13 -1 -13 -10 0 -8 12 -10 12 -10 1 0 -10 -3 -11 -14 -2 -11 10
-17 8 -25 -6 -10 -17 -10 -17 -11 0 0 15 -3 16 -20 7 -15 -8 -20 -8 -20 2 0 9
-3 9 -10 -2 -8 -12 -10 -12 -10 -1 0 9 -4 10 -12 4 -11 -8 -33 -10 -40 -3 -9
7 -50 5 -55 -3 -3 -5 -9 -3 -14 4 -7 12 -9 12 -9 0 0 -11 -3 -11 -15 -1 -12
10 -15 10 -15 0 0 -9 -3 -10 -13 -1 -8 6 -17 8 -21 4 -15 -15 -38 -11 -32 5 4
12 1 11 -12 -4 -15 -18 -19 -19 -31 -6 -11 12 -15 12 -22 0 -7 -11 -9 -11 -9
1 0 10 -3 11 -13 3 -8 -7 -18 -7 -27 -2 -9 5 -20 5 -28 -2 -10 -9 -16 -8 -23
3 -7 12 -9 12 -9 -1 0 -13 -1 -13 -10 0 -8 12 -10 12 -10 1 0 -11 -5 -10 -20
4 -16 14 -19 15 -15 4 4 -10 0 -16 -9 -16 -8 0 -12 5 -9 11 4 6 -1 5 -10 -3
-14 -11 -17 -11 -17 0 0 9 -3 10 -8 4 -10 -14 -52 -17 -52 -4 0 8 -5 7 -16 -2
-13 -10 -17 -10 -25 2 -7 12 -9 12 -9 -1 0 -13 -1 -13 -10 0 -9 13 -10 13 -10
0 0 -12 -2 -12 -9 -1 -5 8 -11 9 -15 3 -5 -9 -26 -9 -46 -2 -15 6 -36 4 -47
-4 -9 -5 -13 -4 -13 5 0 9 -3 10 -8 4 -4 -5 -15 -11 -25 -12 -13 -1 -17 4 -12
15 5 13 2 12 -15 -3 -11 -10 -20 -13 -20 -7 0 6 -12 9 -27 7 -16 -2 -28 -4
-28 -5 0 -1 -10 -3 -22 -4 -15 -2 -23 3 -24 13 0 12 -3 11 -9 -4 -5 -11 -9
-14 -9 -7 -1 8 -6 10 -13 5 -21 -12 -38 -12 -38 0 0 7 -5 5 -10 -3 -9 -13 -10
-13 -10 0 0 13 -1 13 -10 0 -9 -13 -10 -13 -10 0 0 12 -2 12 -9 1 -6 -10 -10
-10 -16 -1 -6 9 -10 9 -16 -1 -6 -10 -9 -11 -9 -1 0 6 -5 12 -11 12 -5 0 -7
-5 -3 -11 4 -8 0 -8 -15 0 -16 9 -21 9 -21 -1 0 -9 -3 -9 -10 2 -9 13 -11 13
-20 0 -6 -9 -13 -11 -17 -5 -10 13 -36 19 -29 6 3 -5 -5 -8 -19 -7 -14 0 -25
6 -25 11 0 6 -5 3 -10 -5 -9 -13 -10 -13 -10 0 0 13 -1 13 -10 0 -8 -12 -10
-12 -10 -1 0 10 -3 11 -14 2 -10 -8 -16 -9 -21 -1 -4 7 -12 7 -26 0 -14 -8
-19 -7 -19 2 0 8 -3 9 -8 3 -10 -14 -43 -15 -36 -1 3 6 -2 2 -10 -8 -14 -17
-16 -18 -16 -3 0 19 -15 23 -26 6 -4 -8 -9 -7 -15 2 -5 8 -9 9 -9 4 0 -6 -9
-11 -20 -11 -11 0 -20 5 -20 11 0 5 -5 3 -10 -5 -5 -8 -10 -10 -10 -3 0 12
-17 12 -37 0 -8 -5 -13 -3 -13 5 0 9 -3 9 -10 -2 -6 -10 -10 -11 -10 -2 0 6
-5 12 -11 12 -5 0 -8 -4 -5 -8 3 -5 -1 -9 -9 -9 -8 0 -15 5 -15 10 0 5 -7 4
-15 -3 -12 -10 -15 -10 -15 1 0 11 -2 11 -10 -1 -7 -11 -10 -11 -10 -2 0 8 -5
10 -12 5 -20 -12 -37 -12 -44 -1 -4 6 -10 5 -15 -3 -7 -11 -9 -11 -9 1 0 13
-1 13 -10 0 -9 -13 -10 -13 -10 0 0 13 -1 13 -10 0 -9 -13 -11 -13 -19 -1 -8
12 -12 12 -24 2 -12 -9 -16 -9 -20 1 -4 10 -6 10 -6 -1 -1 -11 -4 -11 -16 -1
-12 10 -15 10 -15 0 0 -9 -4 -9 -17 1 -9 8 -14 9 -10 2 8 -13 -18 -12 -30 2
-5 4 -1 5 7 0 8 -5 12 -4 7 0 -10 11 -39 16 -32 5 8 -13 -22 -19 -34 -7 -8 8
-11 8 -11 -2 0 -11 -3 -11 -17 0 -11 10 -14 10 -9 2 4 -7 3 -13 -3 -13 -5 0
-13 5 -17 11 -4 8 -9 7 -15 -2 -8 -12 -10 -12 -18 0 -7 11 -9 11 -14 0 -5 -12
-6 -12 -6 0 -1 10 -4 11 -15 2 -10 -8 -16 -9 -21 -1 -9 15 -28 13 -19 -2 4 -7
-3 -4 -15 6 -16 15 -20 16 -16 5 4 -10 0 -16 -9 -16 -8 0 -13 4 -11 8 6 9 -22
6 -31 -4 -12 -12 -26 -8 -18 6 5 8 2 8 -9 -2 -14 -11 -17 -11 -17 0 0 12 -2
12 -9 1 -11 -18 -24 -17 -31 2 -5 14 -7 14 -18 -2z m-587 -732 c3 -5 1 -10 -4
-10 -6 0 -11 5 -11 10 0 6 2 10 4 10 3 0 8 -4 11 -10z m942 -312 c-3 -8 -6 -5
-6 6 -1 11 2 17 5 13 3 -3 4 -12 1 -19z m2014 -1052 c25 0 52 4 59 9 9 5 11 4
6 -3 -8 -14 -4 -15 18 -6 9 3 13 11 10 18 -3 6 2 2 10 -8 9 -11 16 -15 16 -8
0 6 7 9 17 5 9 -3 67 -6 130 -6 74 0 113 -4 113 -11 0 -6 4 -5 9 3 6 9 19 12
40 8 25 -5 29 -4 24 11 -4 14 -2 13 11 -3 13 -15 19 -17 23 -7 4 10 8 9 19 -5
13 -17 14 -17 7 2 -6 18 -5 19 11 6 15 -13 19 -13 27 0 7 11 9 11 9 0 0 -10 3
-11 13 -2 8 6 17 8 20 5 3 -4 53 -6 109 -6 64 0 108 -4 117 -11 12 -10 13 -9
7 2 -7 11 0 12 38 8 31 -4 44 -3 40 4 -4 7 1 7 15 0 11 -7 21 -8 21 -4 0 4 5
1 10 -7 5 -8 10 -10 10 -4 0 14 50 13 50 -1 0 -5 5 -3 10 5 8 12 10 12 10 1 0
-8 7 -11 20 -8 13 3 20 0 20 -9 0 -9 11 -14 30 -14 17 0 30 -4 30 -10 0 -5 3
-9 8 -9 21 4 32 -3 32 -18 0 -9 3 -13 6 -10 9 9 46 -12 40 -22 -3 -4 6 -13 19
-19 14 -7 25 -16 25 -22 0 -5 5 -10 11 -10 6 0 17 -7 25 -15 12 -12 12 -15 2
-15 -7 -1 -2 -7 12 -15 14 -8 21 -14 17 -15 -4 0 -2 -10 5 -22 7 -13 11 -26
10 -30 -1 -5 3 -8 9 -8 6 0 8 -7 5 -16 -3 -8 -2 -12 4 -9 6 3 10 -3 10 -14 0
-12 6 -21 13 -21 9 0 9 -2 -1 -9 -11 -7 -11 -9 1 -14 9 -3 12 -15 9 -37 -3
-20 -1 -30 5 -27 11 7 10 -34 -1 -52 -4 -5 -1 -13 5 -17 8 -4 7 -9 -2 -15 -12
-7 -12 -9 0 -9 11 0 11 -3 0 -16 -8 -10 -9 -18 -3 -22 8 -5 11 -51 5 -69 -1
-2 -1 -6 0 -9 0 -4 -5 -11 -13 -15 -10 -7 -10 -9 0 -9 7 0 10 -5 7 -10 -4 -6
-12 -7 -18 -3 -7 4 -6 0 2 -10 10 -13 10 -17 1 -17 -7 0 -10 -7 -6 -15 3 -8 0
-15 -6 -15 -6 0 -8 -3 -5 -7 4 -3 1 -13 -6 -21 -10 -13 -9 -14 3 -7 8 5 3 -4
-12 -19 -15 -15 -24 -34 -21 -42 3 -8 1 -14 -3 -14 -5 0 -15 -14 -22 -30 -8
-17 -18 -28 -23 -24 -5 3 -9 -2 -9 -11 0 -8 -13 -23 -30 -34 -16 -10 -27 -21
-23 -24 6 -6 -11 -11 -29 -8 -5 0 -8 -7 -8 -17 0 -14 -2 -15 -10 -2 -8 13 -10
12 -10 -3 0 -10 -4 -16 -10 -12 -9 6 -50 -13 -61 -28 -3 -4 -12 -7 -20 -5 -8
2 -13 -3 -11 -12 3 -12 1 -12 -9 -3 -7 8 -18 9 -28 4 -21 -11 -32 -11 -54 0
-14 8 -19 5 -27 -13 -8 -21 -9 -21 -10 -3 0 17 -2 17 -10 5 -6 -9 -10 -10 -10
-3 0 8 -9 9 -29 3 -19 -5 -33 -4 -40 3 -8 8 -11 7 -11 -2 0 -10 -3 -11 -13 -3
-8 7 -18 7 -27 2 -9 -6 -17 -5 -22 3 -5 8 -8 5 -9 -8 l0 -20 -9 20 c-5 11 -9
14 -9 6 -1 -11 -4 -11 -16 -1 -12 10 -15 10 -15 -1 0 -11 -2 -11 -10 1 -9 13
-10 13 -10 0 0 -13 -1 -13 -10 0 -6 10 -10 11 -10 3 0 -9 -7 -10 -23 -4 -13 5
-29 6 -36 1 -18 -10 -52 0 -44 13 3 6 1 7 -6 3 -6 -4 -9 -11 -7 -15 3 -4 -1
-8 -9 -8 -8 0 -15 3 -15 7 0 4 -7 7 -15 7 -8 0 -12 -4 -9 -9 3 -4 1 -8 -5 -8
-5 0 -13 5 -16 10 -3 6 -11 10 -16 10 -6 0 -7 -5 -3 -12 5 -7 3 -8 -7 -2 -20
12 -39 14 -39 3 0 -6 -8 -6 -19 1 -26 13 -34 13 -25 -2 5 -9 2 -9 -9 1 -9 7
-17 10 -17 5 0 -11 -51 -10 -68 0 -7 4 -12 2 -12 -5 0 -8 -5 -7 -17 2 -15 12
-16 12 -10 -6 7 -20 7 -20 -8 -1 -11 14 -15 16 -15 5 0 -12 -2 -12 -10 1 -9
13 -10 13 -10 0 0 -9 -3 -11 -8 -5 -10 14 -62 16 -62 2 0 -7 -4 -6 -10 3 -5 8
-10 10 -10 4 0 -14 -32 -13 -42 1 -5 6 -8 5 -8 -2 0 -7 -5 -13 -11 -13 -5 0
-8 4 -5 8 2 4 -8 7 -22 6 -15 -1 -49 -3 -75 -3 -35 -1 -46 -4 -42 -13 4 -7 0
-5 -8 5 -16 19 -32 24 -21 6 4 -8 0 -8 -15 0 -18 10 -21 9 -22 -6 0 -16 -1
-16 -9 2 -5 11 -9 15 -9 10 -1 -12 -41 -13 -59 -1 -7 4 -12 2 -12 -5 0 -8 -5
-7 -17 2 -15 12 -16 12 -10 -6 7 -20 7 -20 -8 -1 -11 15 -15 16 -16 5 0 -10
-2 -10 -6 -1 -2 6 -9 12 -14 12 -6 0 -7 -5 -3 -11 4 -7 -1 -7 -16 1 -21 11
-22 10 -16 -6 6 -18 5 -18 -9 0 -8 11 -15 14 -15 8 0 -10 -5 -10 -22 -1 -17 9
-23 9 -26 -1 -3 -9 -6 -9 -13 1 -6 10 -9 10 -9 2 0 -9 -7 -10 -25 -3 -18 7
-25 6 -25 -3 0 -8 -4 -7 -10 3 -7 11 -10 11 -10 2 0 -9 -5 -10 -19 -2 -24 12
-34 13 -27 1 4 -5 -9 -6 -29 -1 -29 7 -35 5 -36 -9 0 -12 -2 -12 -9 4 -5 11
-9 14 -9 6 -1 -11 -4 -11 -17 0 -13 10 -17 10 -24 0 -4 -8 -13 -10 -19 -6 -7
4 -19 1 -28 -7 -9 -7 -14 -8 -11 -3 3 6 -1 17 -10 25 -14 13 -15 12 -9 -2 4
-12 2 -15 -9 -11 -14 5 -17 13 -17 46 0 9 -4 17 -10 17 -5 0 -4 6 2 14 8 10 9
16 1 21 -6 3 -7 11 -4 17 12 19 13 109 1 101 -6 -4 -7 -1 -1 8 14 23 16 51 2
43 -7 -5 -8 -3 -3 7 12 19 14 109 2 102 -6 -4 -7 -1 -1 8 14 23 15 81 1 73 -8
-5 -7 -2 2 9 11 14 11 17 0 18 -10 0 -11 2 -1 6 6 2 12 11 12 19 0 9 -5 12
-12 8 -7 -5 -8 -3 -2 7 13 22 16 51 3 43 -8 -5 -8 -1 0 14 8 14 8 23 1 27 -7
4 -7 12 -2 18 10 15 9 57 -2 76 -6 10 -5 12 2 7 7 -4 12 -2 12 3 0 6 -6 11
-12 11 -9 0 -9 3 1 9 13 8 13 12 0 27 -9 12 -10 15 -1 10 9 -5 12 1 10 23 -1
17 -6 31 -11 31 -4 0 -5 5 -1 12 10 16 10 90 0 107 -5 7 0 21 11 33 10 12 13
18 7 15 -7 -4 -15 0 -18 9 -3 8 -2 12 4 9 6 -3 10 5 10 19 0 14 5 26 11 26 5
0 7 6 3 13 -6 9 -4 9 8 -1 11 -9 18 -10 23 -2 3 6 11 7 17 4 5 -3 27 -6 49 -6
24 1 39 -4 39 -11 0 -7 5 -4 11 7 9 15 13 16 20 5 8 -12 11 -12 19 1 8 12 10
12 10 1 0 -11 3 -11 17 0 15 12 16 12 10 -5 -6 -16 -5 -17 8 -6 8 7 15 9 15 4
0 -5 5 -2 10 6 5 8 10 10 10 5 0 -12 92 -11 110 0 9 5 11 4 6 -3 -4 -7 -2 -12
3 -12 6 0 11 6 12 13 0 6 2 8 5 2 2 -6 58 -9 141 -8 184 2 175 1 168 16 -4 6
-1 5 7 -3 8 -10 30 -15 59 -14z m633 -1064 c3 -5 -1 -9 -9 -9 -8 0 -12 4 -9 9
3 4 7 8 9 8 2 0 6 -4 9 -8z m-1386 -2106 c8 12 42 15 42 4 0 -4 7 -7 15 -7 8
0 12 3 10 7 -2 4 9 7 25 6 17 -1 30 -5 30 -11 0 -5 4 -4 9 4 6 9 11 10 15 2 5
-8 13 -8 29 0 16 9 22 9 25 1 3 -9 9 -9 23 -2 14 8 19 7 19 -2 0 -8 3 -9 8 -3
9 13 32 18 32 7 0 -5 7 -9 15 -9 8 0 12 4 9 9 -6 10 4 9 31 -1 11 -5 28 -4 38
1 9 5 17 5 17 0 0 -4 9 -8 19 -8 11 0 17 4 15 8 -3 4 -1 8 5 8 5 0 13 -5 16
-10 4 -6 12 -7 18 -3 16 10 38 10 60 0 10 -4 17 -4 17 2 0 10 32 7 52 -5 7 -4
8 -3 4 5 -5 8 0 10 18 7 14 -3 30 -7 36 -11 5 -3 10 -2 10 4 0 5 10 7 23 5 26
-6 32 -7 70 -1 15 2 27 0 27 -6 0 -6 5 -5 13 1 8 7 18 7 27 2 9 -5 19 -5 27 2
10 8 13 7 13 -3 0 -11 2 -11 10 1 8 12 10 12 10 1 0 -11 3 -11 17 0 15 12 16
12 8 -1 -6 -12 -5 -13 6 -2 16 15 33 16 23 1 -4 -7 2 -6 17 1 17 10 24 10 27
1 2 -6 8 -11 13 -11 6 0 8 3 6 8 -3 4 6 8 19 8 13 1 24 -2 24 -7 0 -6 10 -5
21 2 16 8 20 8 14 -1 -6 -9 -3 -9 12 -1 11 6 23 7 27 4 10 -11 37 -12 30 -2
-3 5 -1 9 5 9 5 0 13 -5 16 -10 4 -6 12 -7 18 -3 18 11 37 12 37 2 0 -5 5 -9
11 -9 5 0 8 3 6 8 -3 4 6 8 19 8 13 1 24 -1 24 -5 0 -4 7 -8 15 -8 8 0 12 4 9
9 -3 4 0 8 5 8 6 0 11 -6 11 -12 0 -8 3 -9 8 -3 9 13 32 18 32 7 0 -5 7 -9 15
-9 8 0 12 4 9 9 -7 11 3 10 28 -3 15 -8 19 -8 14 0 -4 6 -2 11 3 11 6 0 11 -6
11 -12 0 -8 3 -9 8 -3 9 13 32 18 32 7 0 -5 7 -9 15 -9 8 0 12 4 9 9 -3 4 -1
8 5 8 5 0 13 -5 16 -10 4 -6 13 -7 23 -1 25 13 25 13 55 2 20 -8 26 -8 21 0
-4 8 1 9 17 3 25 -8 27 -8 72 -1 15 2 27 0 27 -6 0 -5 7 -4 15 3 8 7 15 8 15
3 0 -5 10 -9 23 -8 12 1 28 -2 35 -8 8 -6 12 -6 12 3 0 9 8 7 26 -5 15 -9 23
-12 19 -5 -5 8 1 7 16 -2 13 -8 31 -14 39 -14 20 2 39 -16 32 -29 -3 -5 2 -4
12 4 15 12 17 12 14 0 -2 -8 4 -14 12 -14 8 0 19 -6 23 -13 5 -7 12 -10 18 -7
5 4 9 1 9 -5 0 -6 5 -8 10 -5 6 3 10 2 10 -4 0 -5 9 -13 20 -16 11 -3 20 -13
20 -21 0 -13 12 -18 33 -15 4 0 6 -2 6 -6 -4 -25 3 -43 16 -43 8 0 14 -6 13
-12 -2 -7 4 -12 12 -10 8 2 12 0 7 -4 -4 -4 0 -18 9 -32 8 -13 13 -26 9 -30
-3 -3 5 -12 17 -19 13 -7 17 -12 10 -13 -7 0 -10 -5 -7 -10 4 -6 11 -8 16 -5
5 4 5 -5 -1 -20 -7 -17 -7 -24 0 -20 9 6 14 -8 11 -29 -1 -4 4 -14 10 -22 9
-11 8 -14 -7 -14 -14 0 -15 -3 -6 -8 7 -5 14 -22 15 -38 1 -16 7 -32 12 -36 6
-5 5 -8 -4 -8 -11 0 -11 -3 0 -17 12 -15 12 -16 -1 -8 -13 8 -13 7 -1 -8 10
-13 10 -17 1 -17 -10 0 -10 -3 0 -15 10 -12 10 -15 -1 -15 -11 0 -11 -2 1 -10
9 -6 11 -10 3 -10 -7 0 -10 -6 -7 -14 3 -8 1 -17 -5 -20 -6 -4 -6 -18 -1 -36
8 -29 6 -34 -14 -31 -5 1 -4 -4 3 -13 8 -9 8 -16 2 -20 -6 -4 -8 -13 -4 -21 3
-8 0 -15 -7 -15 -9 0 -9 -4 1 -17 12 -14 12 -16 0 -8 -11 6 -13 4 -7 -11 4
-10 4 -15 0 -12 -3 4 -13 1 -20 -7 -17 -17 -18 -29 -1 -19 9 6 9 5 0 -8 -7 -8
-9 -19 -5 -23 4 -5 2 -5 -4 -2 -7 4 -20 -5 -29 -19 -11 -18 -13 -24 -4 -19 8
5 -3 -8 -24 -28 -24 -23 -35 -42 -31 -49 4 -7 4 -10 -1 -6 -4 4 -21 -4 -37
-17 -16 -14 -35 -22 -41 -18 -7 4 -8 0 -4 -11 4 -10 3 -15 -3 -11 -6 4 -17 -1
-26 -10 -13 -12 -19 -13 -31 -4 -8 7 -13 8 -11 3 2 -5 -1 -10 -5 -11 -5 -1
-15 -10 -24 -20 -8 -10 -11 -11 -7 -3 7 12 5 13 -8 3 -8 -7 -18 -10 -22 -6 -4
4 -11 1 -16 -7 -9 -13 -10 -13 -10 0 0 11 -3 10 -11 -4 -9 -15 -13 -16 -20 -5
-7 12 -9 12 -9 0 0 -11 -3 -11 -17 0 -11 10 -14 10 -9 2 5 -9 -2 -13 -23 -13
-42 0 -44 0 -58 -11 -7 -7 -14 -6 -19 2 -5 8 -3 9 6 4 9 -6 11 -4 5 5 -6 10
-11 9 -22 -5 -8 -12 -13 -14 -13 -6 0 10 -3 11 -13 2 -8 -6 -17 -8 -21 -4 -12
12 -36 12 -36 0 0 -8 -3 -7 -9 2 -6 10 -10 10 -16 1 -5 -8 -12 -7 -25 5 -14
12 -20 13 -26 4 -5 -8 -3 -10 6 -4 9 5 11 4 6 -4 -4 -6 -13 -8 -19 -4 -19 12
-37 12 -37 1 0 -5 -7 -2 -16 6 -17 17 -28 21 -20 7 3 -5 -1 -11 -9 -15 -8 -3
-17 0 -21 6 -4 7 -9 6 -15 -3 -7 -12 -9 -12 -9 0 0 10 -3 11 -14 2 -10 -8 -16
-9 -21 -1 -3 5 -13 10 -21 10 -9 0 -12 -5 -8 -12 5 -7 3 -8 -7 -2 -21 13 -39
14 -39 1 0 -8 -3 -7 -9 2 -6 9 -11 10 -15 2 -5 -7 -13 -7 -27 2 -16 10 -21 9
-29 -3 -9 -13 -10 -13 -10 0 0 13 -1 13 -10 0 -8 -13 -10 -13 -10 0 0 10 -3
11 -11 3 -9 -9 -18 -7 -38 5 -24 15 -25 15 -13 0 11 -14 11 -16 -5 -13 -10 1
-17 9 -15 16 2 9 -3 8 -16 -4 -10 -9 -22 -14 -26 -10 -12 13 -46 13 -46 0 0
-9 -2 -9 -9 1 -4 8 -12 14 -16 14 -4 0 -12 -6 -16 -14 -7 -11 -9 -11 -9 1 0
10 -3 11 -14 2 -10 -8 -16 -9 -21 -1 -3 6 -11 8 -16 5 -5 -4 -9 0 -9 7 0 9 -3
9 -10 -2 -5 -8 -10 -10 -10 -5 0 6 -5 3 -10 -5 -8 -12 -10 -12 -10 -1 0 11 -3
11 -17 0 -15 -12 -16 -12 -8 1 7 13 6 13 -7 2 -14 -11 -18 -10 -27 5 -10 17
-10 17 -11 -2 0 -15 -2 -17 -9 -6 -6 10 -13 11 -29 2 -17 -9 -23 -8 -31 6 -10
17 -10 16 -11 -2 0 -12 -3 -16 -8 -9 -9 14 -54 13 -64 -1 -5 -6 -8 -6 -8 2 0
6 -8 10 -17 8 -10 -1 -24 3 -32 9 -11 8 -13 8 -7 -1 4 -7 2 -14 -3 -14 -6 -1
-17 -2 -23 -3 -7 -1 -18 2 -25 6 -6 5 -14 5 -18 -2 -3 -6 -12 -7 -18 -3 -20
12 -37 12 -37 0 0 -8 -3 -7 -9 2 -6 9 -10 10 -16 2 -5 -9 -10 -9 -20 -1 -14
11 -42 9 -64 -4 -10 -6 -12 -5 -7 2 4 7 3 12 -3 12 -5 0 -13 -5 -17 -11 -4 -8
-9 -7 -14 2 -7 10 -12 10 -23 1 -12 -10 -16 -9 -21 4 -4 10 -11 13 -19 8 -6
-5 -25 -9 -42 -9 -16 0 -33 -4 -37 -10 -5 -6 -8 -5 -8 4 0 11 -3 11 -17 0 -11
-10 -14 -10 -9 -1 5 8 0 12 -13 12 -12 0 -21 -4 -21 -8 0 -12 -49 -7 -62 6 -9
9 -16 8 -30 -5 -13 -11 -18 -12 -18 -3 0 10 -4 10 -17 -1 -10 -7 -15 -9 -11
-5 5 5 -1 16 -13 24 -15 10 -18 17 -10 25 7 7 7 15 -2 26 -10 12 -9 13 1 7 9
-6 11 -1 8 18 -3 16 0 26 7 26 7 0 6 4 -3 10 -8 5 -10 10 -5 10 6 0 3 5 -5 10
-8 5 -10 10 -5 10 6 0 11 11 11 25 1 15 -2 22 -9 18 -6 -4 -7 -1 -2 7 13 21
13 100 1 93 -8 -5 -8 -3 0 8 12 17 12 58 0 78 -6 10 -5 12 2 7 7 -4 12 -2 12
3 0 6 -5 11 -12 11 -6 0 -3 7 8 16 10 8 14 13 8 10 -7 -3 -15 1 -18 10 -3 8
-2 13 3 9 13 -7 8 108 -4 117 -6 5 -6 8 1 8 12 0 13 104 1 116 -3 4 -3 12 0
18 12 19 12 36 0 36 -7 0 -5 5 3 10 8 5 10 10 5 10 -6 0 -11 9 -11 19 0 11 4
17 8 15 9 -6 4 48 -6 64 -3 6 -2 14 4 17 8 5 7 12 -2 23 -7 9 -8 13 -2 9 7 -4
11 6 11 28 0 19 -4 32 -9 29 -4 -3 -3 7 2 22 8 21 8 29 -2 36 -9 5 -10 11 -3
16 13 8 13 22 1 41 -6 10 -5 12 2 7 15 -9 16 19 1 46 -6 12 -7 18 -1 14 5 -3
12 4 16 17 5 18 8 20 16 7 7 -10 12 -12 18 -4z m-1138 -3250 c0 -3 -4 -8 -10
-11 -5 -3 -10 -1 -10 4 0 6 5 11 10 11 6 0 10 -2 10 -4z"/>
<path d="M3276 9692 c-3 -5 1 -9 9 -9 8 0 12 4 9 9 -3 4 -7 8 -9 8 -2 0 -6 -4
-9 -8z"/>
<path d="M885 8940 c-3 -5 -13 -10 -20 -10 -8 0 -29 -9 -47 -21 -18 -12 -24
-18 -13 -15 19 6 19 5 -1 -12 -11 -10 -20 -25 -18 -35 1 -9 -2 -15 -7 -11 -5
3 -9 -5 -10 -18 0 -13 -1 -37 -2 -54 -2 -23 2 -30 11 -26 8 3 12 -1 10 -10 -3
-15 53 -78 70 -78 6 0 12 -6 15 -12 3 -10 7 -10 20 1 10 7 17 9 17 3 0 -7 8
-6 24 1 13 7 23 14 20 18 -2 3 7 5 21 4 17 -2 22 1 18 11 -3 8 1 14 10 14 9 0
19 5 23 12 5 7 3 8 -7 3 -12 -8 -12 -6 -1 8 8 9 11 21 7 27 -3 5 -1 10 5 10 6
0 8 5 5 10 -3 6 0 10 7 10 8 0 9 3 3 8 -5 4 -10 14 -10 22 0 8 5 18 10 22 6 5
5 8 -3 8 -7 0 -12 8 -10 18 2 9 -2 16 -8 15 -7 -1 -11 5 -10 15 0 10 -5 16
-13 14 -12 -3 -12 0 -1 13 11 13 10 15 -3 10 -8 -4 -18 -1 -23 6 -5 8 -3 10 6
4 8 -5 11 -4 6 3 -4 6 -13 9 -21 5 -8 -3 -15 -1 -15 4 0 5 -7 10 -15 10 -8 0
-12 -4 -9 -9 3 -4 0 -8 -5 -8 -6 0 -11 5 -11 10 0 6 -4 10 -9 10 -6 0 -13 -4
-16 -10z"/>
<path d="M1345 7790 c-16 -9 -36 -15 -44 -12 -9 3 -12 1 -7 -6 4 -7 1 -12 -8
-12 -8 0 -18 -10 -22 -22 -4 -13 -14 -29 -23 -36 -12 -10 -12 -12 -1 -6 12 6
13 4 3 -7 -7 -7 -13 -17 -13 -22 0 -4 6 -5 13 -2 6 4 4 0 -6 -8 -11 -9 -14
-18 -8 -21 6 -4 8 -13 5 -21 -3 -8 1 -22 10 -31 9 -8 14 -19 12 -23 -3 -4 4
-13 14 -21 10 -8 17 -17 14 -22 -3 -4 2 -8 10 -8 9 0 16 -6 16 -12 0 -9 4 -8
10 2 8 13 10 12 10 -3 0 -17 1 -17 16 -2 10 10 20 12 28 7 14 -11 46 -12 46
-1 0 5 7 5 17 2 10 -4 14 -2 9 5 -3 6 2 16 13 21 28 15 64 141 41 141 -6 0 -8
7 -12 49 -1 11 -5 18 -8 16 -3 -2 -14 7 -24 20 -10 13 -24 21 -32 18 -8 -3
-14 -1 -14 4 0 4 -8 13 -17 19 -14 8 -25 7 -48 -6z m40 0 c3 -5 1 -10 -4 -10
-6 0 -11 5 -11 10 0 6 2 10 4 10 3 0 8 -4 11 -10z"/>
<path d="M1355 7490 c-3 -5 -1 -10 4 -10 6 0 11 5 11 10 0 6 -2 10 -4 10 -3 0
-8 -4 -11 -10z"/>
<path d="M2195 7480 c-3 -5 -1 -10 4 -10 6 0 11 5 11 10 0 6 -2 10 -4 10 -3 0
-8 -4 -11 -10z"/>
<path d="M105 7186 c-9 -11 -13 -14 -10 -6 4 10 2 9 -8 -2 -8 -10 -18 -14 -23
-10 -4 4 -2 -1 5 -11 12 -15 12 -17 -4 -11 -15 6 -17 3 -13 -14 4 -12 1 -25
-4 -29 -7 -4 -8 -1 -3 8 5 8 4 11 0 6 -12 -10 -13 -87 -2 -94 5 -3 3 -9 -4
-14 -10 -6 -11 -9 -1 -9 6 0 12 -7 12 -16 0 -9 5 -12 12 -8 7 5 9 2 6 -8 -6
-15 48 -55 59 -44 4 3 18 -4 31 -16 14 -13 22 -17 18 -10 -7 11 12 17 38 13
13 -3 36 20 30 30 -3 5 3 6 12 2 11 -4 15 -2 11 4 -4 6 0 14 9 17 9 4 14 13
10 22 -3 8 -2 12 4 9 12 -7 13 -3 15 65 0 28 -3 50 -7 50 -4 0 -7 6 -6 13 2 6
-3 11 -11 9 -12 -3 -12 -1 -1 13 7 9 9 15 4 14 -21 -4 -34 2 -32 14 2 6 -3 11
-9 10 -7 -2 -13 5 -13 15 0 14 -2 15 -10 2 -6 -9 -10 -10 -10 -3 0 8 -16 12
-45 11 -33 0 -48 -6 -60 -22z"/>
<path d="M130 6910 c0 -5 5 -10 11 -10 5 0 7 5 4 10 -3 6 -8 10 -11 10 -2 0
-4 -4 -4 -10z"/>
<path d="M1294 5455 c-4 -11 -16 -27 -26 -36 -10 -9 -18 -25 -18 -36 0 -10 -5
-24 -12 -31 -7 -7 -8 -12 -3 -12 6 0 4 -4 -3 -8 -7 -5 -10 -16 -6 -25 3 -9 9
-15 13 -12 4 2 7 -11 6 -30 0 -25 2 -31 11 -24 9 8 11 5 7 -10 -5 -20 28 -47
41 -33 4 3 4 -1 1 -10 -5 -12 -1 -17 12 -16 10 0 26 -3 36 -7 11 -5 17 -3 17
6 0 11 3 11 10 -1 7 -12 10 -12 10 -1 0 7 6 11 15 7 18 -6 69 39 60 53 -3 7 0
8 9 5 11 -4 16 0 17 12 2 24 3 33 13 68 6 18 5 31 -2 35 -6 4 -12 21 -14 38
-1 17 -5 31 -8 31 -23 -2 -31 4 -26 19 4 10 4 14 0 10 -4 -4 -14 -1 -22 5 -18
15 -100 20 -108 6 -4 -6 -10 -5 -15 3 -6 10 -10 9 -15 -6z"/>
<path d="M10594 4293 c-7 -7 -17 -13 -22 -13 -5 0 -15 -7 -22 -15 -7 -8 -16
-12 -21 -9 -5 3 -9 -2 -9 -10 0 -8 -8 -20 -17 -25 -13 -8 -14 -10 -4 -11 11 0
10 -4 -4 -13 -10 -8 -14 -17 -8 -20 5 -3 8 -24 6 -46 -2 -28 1 -41 10 -41 9 0
9 -2 -1 -9 -11 -7 -10 -9 3 -15 9 -3 13 -11 9 -17 -4 -8 -3 -9 4 -5 7 4 12 2
12 -4 0 -6 4 -8 10 -5 6 3 7 -1 4 -9 -4 -11 0 -16 14 -16 12 0 26 -8 32 -17
11 -17 11 -17 6 1 -6 16 -4 17 9 6 12 -10 15 -10 15 0 0 10 3 10 15 0 12 -10
15 -10 15 0 0 9 4 9 17 -1 14 -12 16 -12 8 0 -6 11 -4 13 11 7 10 -4 15 -4 11
0 -3 4 3 15 15 25 11 11 17 19 12 19 -5 0 -1 5 9 11 9 6 15 14 12 19 -3 5 -1
11 4 14 5 3 7 16 3 28 -4 16 -2 19 9 13 11 -7 12 -6 2 6 -10 12 -10 18 0 29 7
8 7 10 1 7 -7 -4 -14 5 -18 23 -3 17 -6 33 -7 38 -3 12 -33 31 -42 25 -4 -2
-6 1 -5 9 2 7 -7 14 -20 16 -12 2 -20 6 -18 10 7 13 -47 7 -60 -5z"/>
<path d="M8415 3990 c-3 -5 -1 -10 4 -10 6 0 11 5 11 10 0 6 -2 10 -4 10 -3 0
-8 -4 -11 -10z"/>
<path d="M9544 3123 c-10 -10 -13 -10 -17 0 -4 9 -6 9 -6 -1 -1 -7 -5 -10 -11
-7 -5 3 -10 0 -10 -8 0 -8 -7 -17 -15 -21 -8 -3 -15 -13 -15 -21 0 -9 -4 -13
-10 -10 -6 3 -7 -1 -4 -9 3 -9 1 -16 -5 -16 -6 0 -10 -3 -10 -7 1 -5 0 -10 -1
-13 -1 -3 -3 -19 -4 -37 -1 -22 2 -29 9 -23 8 6 10 0 9 -20 -1 -17 3 -30 8
-30 6 0 7 -7 4 -16 -3 -8 -2 -13 3 -10 5 3 11 -1 15 -9 3 -8 12 -15 21 -15 8
0 15 -5 15 -11 0 -8 4 -8 15 1 12 10 13 8 10 -10 -3 -18 -2 -20 10 -10 8 7 20
10 27 7 7 -2 24 5 37 17 13 11 21 15 17 9 -4 -7 -2 -13 3 -13 6 0 11 5 11 11
0 5 5 7 12 3 8 -5 9 -2 5 9 -4 12 -1 17 10 17 9 0 14 3 10 6 -3 4 1 13 9 22
13 12 13 16 2 23 -11 7 -11 9 1 9 11 0 11 3 0 17 -12 14 -12 16 0 8 11 -6 12
-1 7 30 -6 29 -4 35 6 30 7 -3 5 0 -4 8 -10 8 -18 25 -18 38 0 19 -2 21 -10 9
-8 -13 -10 -12 -10 4 0 12 -5 16 -16 12 -8 -3 -13 -2 -11 2 3 4 -1 13 -9 20
-9 8 -14 9 -14 2 0 -6 -5 -8 -10 -5 -6 4 -8 9 -6 13 7 12 -47 7 -60 -5z"/>
<path d="M4626 1148 c3 -5 10 -6 15 -3 13 9 11 12 -6 12 -8 0 -12 -4 -9 -9z"/>
<path d="M4666 1148 c3 -5 10 -6 15 -3 13 9 11 12 -6 12 -8 0 -12 -4 -9 -9z"/>
<path d="M6346 1148 c3 -5 10 -6 15 -3 13 9 11 12 -6 12 -8 0 -12 -4 -9 -9z"/>
</g>
</svg>
